<svg xmlns="http://www.w3.org/2000/svg" viewBox="0 -0.5 90 30" shape-rendering="crispEdges">
<metadata>Made with Pixels to Svg https://codepen.io/shshaw/pen/XbxvNj</metadata>
<path stroke="#ffffff" d="M4 8h8M4 9h8M2 10h2M6 10h6M14 10h2M20 10h4M28 10h6M36 10h4M42 10h6M56 10h8M66 10h8M78 10h2M84 10h4M2 11h10M14 11h2M20 11h4M28 11h6M36 11h4M43 11h3M47 11h1M56 11h1M58 11h1M60 11h4M66 11h8M78 11h2M84 11h4M2 12h4M10 12h2M14 12h2M20 12h4M26 12h8M36 12h12M56 12h4M66 12h2M72 12h1M74 12h2M78 12h2M84 12h4M2 13h4M10 13h2M14 13h2M21 13h3M26 13h8M36 13h12M56 13h4M67 13h1M72 13h4M78 13h2M84 13h4M44 14h4M84 14h4M44 15h4M84 15h4M4 16h8M14 16h9M28 16h6M36 16h2M44 16h4M56 16h8M68 16h4M73 16h3M78 16h3M82 16h6M5 17h2M8 17h4M14 17h10M28 17h6M36 17h2M44 17h2M47 17h1M56 17h8M68 17h7M79 17h9M12 18h2M12 19h2" />
<path stroke="#fffeff" d="M4 10h1M46 11h1M73 12h1M4 17h1M7 17h1M46 17h1" />
<path stroke="#fffffe" d="M5 10h1M59 11h1M20 13h1M23 16h1" />
<path stroke="#feffff" d="M42 11h1M57 11h1M66 13h1M72 16h1M81 16h1M75 17h1M78 17h1" />
<path stroke="#000000" d="M0 12h2M6 12h4M12 12h2M16 12h4M24 12h2M34 12h2M48 12h2M54 12h2M60 12h6M68 12h4M76 12h2M81 12h3M88 12h2M0 13h2M6 13h4M12 13h2M16 13h3M24 13h2M34 13h2M48 13h2M54 13h1M60 13h6M68 13h4M76 13h2M80 13h4M88 13h1M0 14h2M6 14h4M12 14h2M16 14h4M24 14h2M30 14h4M35 14h1M38 14h2M42 14h2M48 14h2M54 14h6M64 14h2M68 14h2M71 14h1M76 14h2M80 14h4M88 14h2M0 15h2M6 15h4M12 15h2M16 15h4M24 15h2M30 15h4M35 15h1M38 15h2M42 15h2M48 15h2M55 15h5M64 15h2M68 15h4M76 15h2M80 15h4M88 15h2M2 16h2M24 16h4M34 16h2M38 16h6M48 16h2M54 16h2M64 16h4M76 16h2M88 16h2M2 17h2M24 17h1M26 17h2M34 17h2M38 17h6M48 17h2M54 17h2M64 17h4M76 17h2M88 17h2M4 18h6M14 18h12M28 18h12M42 18h8M56 18h9M67 18h6M74 18h16M4 19h2M7 19h3M14 19h3M18 19h8M28 19h4M33 19h7M42 19h8M57 19h8M66 19h4M71 19h4M77 19h4M82 19h8" />
<path stroke="#000001" d="M80 12h1M89 13h1M65 18h1M17 19h1M32 19h1M56 19h1M65 19h1" />
<path stroke="#000100" d="M19 13h1M55 13h1M34 14h1M70 14h1M34 15h1M25 17h1M73 18h1M70 19h1M76 19h1" />
<path stroke="#c0dcc0" d="M2 14h4M10 14h2M14 14h2M20 14h4M26 14h4M36 14h2M40 14h2M60 14h4M67 14h1M72 14h4M78 14h2M2 15h4M10 15h2M14 15h1M20 15h4M26 15h4M36 15h2M41 15h1M60 15h4M66 15h2M72 15h4M79 15h1" />
<path stroke="#c1dcc0" d="M66 14h1M15 15h1M78 15h1" />
<path stroke="#c0ddc0" d="M40 15h1" />
<path stroke="#010000" d="M54 15h1M66 18h1M6 19h1M75 19h1M81 19h1" />
<path stroke="#818080" d="M12 16h1" />
<path stroke="#808080" d="M13 16h1M12 17h2M10 18h2M11 19h1" />
<path stroke="#808180" d="M10 19h1" />
</svg>