<svg xmlns="http://www.w3.org/2000/svg" viewBox="0 -0.5 19 18" shape-rendering="crispEdges">
<metadata>Made with Pixels to Svg https://codepen.io/shshaw/pen/XbxvNj</metadata>
<path stroke="#543fff" d="M0 0h1M9 0h1M15 0h1M11 1h1M17 1h1M1 2h1M4 2h1M7 2h1M13 2h1M16 2h1M2 4h1M14 4h1M17 4h1M15 6h1M1 8h1M16 8h1M9 12h1M17 13h1M4 14h1M10 14h1M13 14h1M0 15h1M12 15h1M15 15h1M8 16h1M11 16h1M17 16h1" />
<path stroke="#553fff" d="M1 0h1M3 0h1M5 0h2M8 0h1M12 0h3M16 0h1M0 1h7M8 1h2M12 1h1M14 1h2M0 2h1M5 2h1M8 2h4M17 2h1M0 3h4M9 3h1M15 3h3M3 4h1M15 4h2M1 5h1M15 5h3M0 6h3M17 6h1M0 7h1M17 7h1M0 8h1M7 8h1M11 8h1M17 8h1M0 9h2M6 9h2M16 9h2M1 10h1M16 10h2M0 11h2M16 11h1M0 12h2M7 12h2M10 12h1M16 12h2M0 13h3M7 13h2M15 13h2M1 14h3M5 14h5M11 14h2M15 14h2M2 15h3M6 15h1M9 15h3M0 16h3M4 16h4M9 16h2M13 16h4" />
<path stroke="#553ffe" d="M2 0h1M11 0h1M17 0h1M7 1h1M10 1h1M13 1h1M16 1h1M3 2h1M6 2h1M12 2h1M15 2h1M8 3h1M14 3h1M1 4h1M0 5h1M1 7h1M16 7h1M11 9h1M10 13h1M0 14h1M5 15h1M8 15h1M14 15h1M17 15h1" />
<path stroke="#553eff" d="M4 0h1M7 0h1M10 0h1M2 2h1M14 2h1M0 4h1M2 5h1M16 6h1M15 7h1M10 9h1M0 10h1M17 11h1M9 13h1M14 14h1M17 14h1M1 15h1M7 15h1M13 15h1M16 15h1M3 16h1M12 16h1" />
<path stroke="#000100" d="M18 1h1M5 17h1M8 17h1" />
<path stroke="#000000" d="M18 2h1M18 3h1M18 4h1M18 6h1M18 7h1M18 10h1M18 12h1M18 13h1M18 14h1M18 16h1M1 17h4M6 17h2M9 17h3M14 17h2M17 17h2" />
<path stroke="#557eff" d="M4 3h1M2 8h1" />
<path stroke="#fffffe" d="M5 3h1M4 4h1M7 4h1M4 7h1M13 7h1M3 8h1M12 8h1M2 9h1M5 9h1M8 9h1M14 9h1M4 10h1M10 10h1M6 11h1M15 11h1M14 12h1" />
<path stroke="#feffff" d="M6 3h1M5 4h1M8 4h1M4 5h1M3 6h1M9 6h1M12 6h1M11 7h1M4 8h1M13 8h1M12 9h1M2 10h1M11 10h1M10 11h1M12 12h1" />
<path stroke="#555fff" d="M7 3h1M2 7h1M12 11h1M6 12h1M3 13h1" />
<path stroke="#555eff" d="M10 3h1M5 11h1" />
<path stroke="#ffffff" d="M11 3h2M6 4h1M10 4h4M5 5h9M5 6h2M8 6h1M10 6h2M13 6h2M5 7h6M14 7h1M5 8h1M8 8h2M3 9h2M9 9h1M13 9h1M15 9h1M3 10h1M5 10h4M13 10h3M2 11h3M7 11h3M11 11h1M13 11h1M3 12h3M13 12h1M4 13h2M12 13h2" />
<path stroke="#557fff" d="M13 3h1M14 5h1M6 8h1M10 8h1M2 12h1M6 13h1M11 13h1" />
<path stroke="#fffeff" d="M9 4h1M4 6h1M7 6h1M3 7h1M12 7h1M14 8h1M9 10h1M12 10h1M14 11h1" />
<path stroke="#557ffe" d="M3 5h1M15 8h1" />
<path stroke="#000001" d="M18 5h1M18 8h1M18 11h1M12 17h1" />
<path stroke="#010000" d="M18 9h1M18 15h1M13 17h1M16 17h1" />
<path stroke="#555ffe" d="M11 12h1" />
<path stroke="#547fff" d="M15 12h1" />
<path stroke="#545fff" d="M14 13h1" />
</svg>