<svg xmlns="http://www.w3.org/2000/svg" viewBox="0 -0.5 44 2" shape-rendering="crispEdges">
<metadata>Made with Pixels to Svg https://codepen.io/shshaw/pen/XbxvNj</metadata>
<path stroke="#fefffe" d="M0 0h1" />
<path stroke="#010001" d="M1 0h1M32 1h1M41 1h1" />
<path stroke="#fffeff" d="M4 0h1M12 0h1M16 0h1M20 0h1" />
<path stroke="#000101" d="M5 0h1M16 1h2M20 1h1M28 1h1" />
<path stroke="#ffffff" d="M8 0h1M24 0h1M32 0h1M36 0h1M40 0h1" />
<path stroke="#010000" d="M9 0h1M29 0h1M33 0h1M37 0h1M25 1h1" />
<path stroke="#000001" d="M13 0h1M0 1h1M24 1h1" />
<path stroke="#000000" d="M17 0h1M21 0h1M5 1h1M12 1h1M29 1h1M33 1h1" />
<path stroke="#010100" d="M25 0h1M41 0h1M4 1h1" />
<path stroke="#feffff" d="M28 0h1" />
<path stroke="#010101" d="M1 1h1M21 1h1" />
<path stroke="#000100" d="M8 1h2M13 1h1M36 1h2M40 1h1" />
</svg>