<svg xmlns="http://www.w3.org/2000/svg" viewBox="0 -0.5 16 16" shape-rendering="crispEdges">
<metadata>Made with Pixels to Svg https://codepen.io/shshaw/pen/XbxvNj</metadata>
<path stroke="#fffffe" d="M0 2h1M10 2h1M14 2h1M0 3h1" />
<path stroke="#ffffff" d="M1 2h2M5 2h1M7 2h2M11 2h1M0 7h1M0 8h1M0 9h1M0 11h1" />
<path stroke="#fffeff" d="M3 2h2M12 2h1M0 4h1" />
<path stroke="#feffff" d="M6 2h1M9 2h1M13 2h1M0 5h1M0 6h1" />
<path stroke="#808181" d="M15 2h1" />
<path stroke="#2a9fff" d="M1 3h1M4 3h1M6 3h1M8 3h1M11 3h1M1 4h2M10 4h2M1 11h1M3 11h2M6 11h1M12 11h1M6 12h1M9 12h2M14 12h1" />
<path stroke="#2a9ffe" d="M2 3h1M9 3h2M7 4h1M12 4h2M10 11h2M13 11h1M3 12h1M5 12h1M12 12h1" />
<path stroke="#2b9fff" d="M3 3h1M5 3h1M14 3h1M9 4h1M14 4h1M5 11h1M8 11h1M1 12h1M8 12h1" />
<path stroke="#2b9efe" d="M7 3h1M11 12h1" />
<path stroke="#2b9eff" d="M12 3h1M2 12h1M7 12h1" />
<path stroke="#2a9eff" d="M13 3h1M3 4h4" />
<path stroke="#010001" d="M15 3h1" />
<path stroke="#2b9ffe" d="M8 4h1M7 11h1M9 11h1M14 11h1" />
<path stroke="#010101" d="M15 4h1" />
<path stroke="#ff7fff" d="M1 5h3M5 5h1M7 5h1M1 6h3M5 6h2M10 6h1M12 6h2M1 9h1M9 9h1M12 9h1M9 10h1M11 10h1" />
<path stroke="#ff7eff" d="M4 5h1M14 5h1M7 6h3M14 6h1M2 9h1M4 9h1M13 9h1M4 10h1M10 10h1" />
<path stroke="#fe7ffe" d="M6 5h1M12 5h1M11 6h1M6 9h1M10 9h1M12 10h1" />
<path stroke="#fe7fff" d="M8 5h1M10 5h1M13 5h1M4 6h1M7 9h1M11 9h1M6 10h1M8 10h1" />
<path stroke="#fe7eff" d="M9 5h1M8 9h1" />
<path stroke="#ff7ffe" d="M11 5h1M3 9h1M5 9h1M1 10h1M3 10h1M5 10h1M7 10h1M13 10h2" />
<path stroke="#000000" d="M15 5h1M15 10h1M15 11h1M1 13h1M6 13h1M8 13h1M10 13h2" />
<path stroke="#000100" d="M15 6h1M15 7h1M2 13h1M5 13h1M7 13h1M15 13h1" />
<path stroke="#fffbf0" d="M1 7h1M7 7h2M10 7h2M14 7h1M1 8h1M3 8h2M6 8h1M8 8h1M12 8h2" />
<path stroke="#fefaf1" d="M2 7h1" />
<path stroke="#fffaf0" d="M3 7h1M5 7h2M5 8h1M10 8h2" />
<path stroke="#fefbf0" d="M4 7h1M12 7h2M2 8h1M7 8h1" />
<path stroke="#fefaf0" d="M9 7h1M9 8h1M14 8h1" />
<path stroke="#010000" d="M15 8h1M4 13h1M13 13h1" />
<path stroke="#fe7efe" d="M14 9h1" />
<path stroke="#010100" d="M15 9h1M15 12h1" />
<path stroke="#fffefe" d="M0 10h1" />
<path stroke="#ff7efe" d="M2 10h1" />
<path stroke="#2a9efe" d="M2 11h1M4 12h1M13 12h1" />
<path stroke="#fefeff" d="M0 12h1" />
<path stroke="#2a3f55" d="M0 13h1" />
<path stroke="#000001" d="M3 13h1M9 13h1M14 13h1" />
<path stroke="#000101" d="M12 13h1" />
</svg>