<svg xmlns="http://www.w3.org/2000/svg" viewBox="0 -0.5 17 16" shape-rendering="crispEdges">
<metadata>Made with Pixels to Svg https://codepen.io/shshaw/pen/XbxvNj</metadata>
<path stroke="#feffff" d="M6 0h3M10 0h1M5 1h1M12 1h1M3 2h1M5 3h1M11 3h1M4 5h4M11 5h2M1 6h1M12 6h1M1 7h1M8 7h1M4 8h1M1 9h1" />
<path stroke="#fefffe" d="M9 0h1M8 1h1M8 2h1M8 3h1M14 3h1M14 4h1M3 5h1M9 5h1M2 9h2" />
<path stroke="#fffefe" d="M4 1h1" />
<path stroke="#000001" d="M6 1h1M10 1h1M15 3h1M13 4h1M10 6h1M6 7h1M0 8h1M3 8h1M15 10h1M12 11h1" />
<path stroke="#ccccfe" d="M7 1h1M14 5h1M12 8h1M9 9h1M15 9h1M2 11h1M14 11h1M3 12h1M13 12h1" />
<path stroke="#cccdff" d="M9 1h1M2 5h1M15 8h1M4 13h1" />
<path stroke="#fefeff" d="M11 1h1M6 2h1M10 2h1M2 3h1M11 4h1M4 7h1M1 8h1" />
<path stroke="#000000" d="M4 2h1M12 2h1M3 3h2M7 3h1M13 3h1M6 4h2M9 4h2M3 6h1M6 6h2M9 6h1M11 6h1M5 7h1M11 7h1M16 7h1M2 8h1M11 8h1M14 8h1M6 10h2M9 10h2M12 10h1M7 11h1M4 12h1M12 12h1M14 12h1M13 13h1M4 14h2M6 15h4" />
<path stroke="#2b3e54" d="M5 2h1" />
<path stroke="#000101" d="M7 2h1M5 6h1M9 7h1M13 7h1M0 9h1M9 11h1" />
<path stroke="#010001" d="M9 2h1M2 6h1M0 7h1M1 11h1M15 11h1M10 15h1" />
<path stroke="#2a3e55" d="M11 2h1M4 4h1M12 4h1" />
<path stroke="#fffeff" d="M13 2h1M8 4h1M1 5h1M13 5h1" />
<path stroke="#2b3f55" d="M6 3h1M6 11h1M11 12h1" />
<path stroke="#010100" d="M9 3h1M3 7h1M13 8h1" />
<path stroke="#2a3f55" d="M10 3h1M10 11h1" />
<path stroke="#010000" d="M12 3h1M15 4h1M16 5h1M14 6h1M16 6h1M2 7h1M7 7h1M9 8h2M16 9h1M1 10h1M4 11h1M13 11h1M7 12h1M9 12h1M6 13h1M11 14h2" />
<path stroke="#ffffff" d="M2 4h1M5 4h1M4 6h1M8 6h1" />
<path stroke="#000100" d="M3 4h1M13 6h1M10 7h1M14 7h1M5 8h3M16 8h1M3 10h1M3 11h1M3 13h1M10 13h1" />
<path stroke="#fffffe" d="M8 5h1M15 5h1" />
<path stroke="#fefefe" d="M10 5h1M4 9h1" />
<path stroke="#ccccff" d="M15 6h1M12 7h1M15 7h1M8 8h1M7 9h2M11 9h2M11 10h1M14 10h1M5 11h1M11 11h1M6 12h1M5 13h1M8 13h1M11 13h2M6 14h2" />
<path stroke="#cccdfe" d="M5 9h1M10 9h1M2 10h1M9 14h2" />
<path stroke="#cdccff" d="M6 9h1M13 9h1M5 10h1M8 10h1M8 14h1" />
<path stroke="#7f9fff" d="M14 9h1M9 13h1" />
<path stroke="#2a3f54" d="M4 10h1" />
<path stroke="#2a3e54" d="M13 10h1M5 12h1" />
<path stroke="#cdcdff" d="M8 11h1M8 12h1M10 12h1" />
<path stroke="#010101" d="M2 12h1" />
<path stroke="#7f9ffe" d="M7 13h1" />
</svg>