<svg xmlns="http://www.w3.org/2000/svg" viewBox="0 -0.5 280 2" shape-rendering="crispEdges">
<metadata>Made with Pixels to Svg https://codepen.io/shshaw/pen/XbxvNj</metadata>
<path stroke="#000000" d="M0 0h1M0 1h3M4 1h2M7 1h1M9 1h3M13 1h3M17 1h5M23 1h2M26 1h3M30 1h1M33 1h1M36 1h6M43 1h3M47 1h3M53 1h1M57 1h6M64 1h1M66 1h1M70 1h1M72 1h1M75 1h3M79 1h1M82 1h5M88 1h1M90 1h2M94 1h1M96 1h6M103 1h4M108 1h1M110 1h1M112 1h3M117 1h1M119 1h2M127 1h4M132 1h1M134 1h10M145 1h3M149 1h2M153 1h1M155 1h1M157 1h1M159 1h1M161 1h1M164 1h1M166 1h1M168 1h3M175 1h3M180 1h1M182 1h1M184 1h3M189 1h1M191 1h2M195 1h1M198 1h1M201 1h2M205 1h1M207 1h3M212 1h1M218 1h6M226 1h1M231 1h3M236 1h7M244 1h1M248 1h6M255 1h7M264 1h1M268 1h2M273 1h2M276 1h1M278 1h1" />
<path stroke="#ffffff" d="M1 0h2M4 0h3M8 0h2M11 0h1M15 0h2M20 0h1M22 0h3M27 0h1M29 0h4M34 0h1M36 0h1M38 0h3M42 0h1M44 0h5M50 0h1M52 0h1M54 0h3M59 0h2M62 0h4M68 0h1M71 0h6M78 0h4M83 0h3M87 0h4M93 0h3M97 0h3M105 0h2M108 0h1M111 0h2M114 0h1M117 0h5M123 0h1M127 0h3M132 0h1M135 0h1M137 0h2M140 0h3M144 0h4M150 0h2M153 0h7M161 0h4M166 0h5M172 0h9M182 0h1M185 0h2M190 0h4M195 0h5M201 0h1M206 0h1M208 0h1M211 0h1M213 0h5M219 0h3M223 0h2M226 0h1M232 0h2M235 0h2M238 0h2M241 0h1M243 0h3M251 0h1M255 0h6M262 0h1M264 0h3M268 0h1M270 0h1M273 0h3M277 0h2" />
<path stroke="#fffffe" d="M3 0h1M12 0h1M26 0h1M41 0h1M43 0h1M51 0h1M66 0h1M100 0h3M104 0h1M109 0h1M113 0h1M124 0h2M131 0h1M134 0h1M139 0h1M149 0h1M181 0h1M205 0h1M209 0h1M218 0h1M230 0h1M242 0h1M247 0h2M271 0h1M276 0h1" />
<path stroke="#fefffe" d="M7 0h1M70 0h1M91 0h1M116 0h1M228 0h1M252 0h1" />
<path stroke="#feffff" d="M10 0h1M13 0h1M19 0h1M21 0h1M25 0h1M35 0h1M61 0h1M67 0h1M96 0h1M107 0h1M115 0h1M126 0h1M130 0h1M136 0h1M143 0h1M152 0h1M165 0h1M188 0h1M202 0h2M207 0h1M212 0h1M225 0h1M227 0h1M229 0h1M231 0h1M240 0h1M246 0h1M253 0h1M263 0h1M269 0h1M272 0h1" />
<path stroke="#fffeff" d="M14 0h1M17 0h2M28 0h1M33 0h1M37 0h1M49 0h1M53 0h1M57 0h2M69 0h1M77 0h1M82 0h1M86 0h1M103 0h1M110 0h1M133 0h1M148 0h1M160 0h1M171 0h1M183 0h1M187 0h1M189 0h1M194 0h1M200 0h1M204 0h1M210 0h1M222 0h1M250 0h1M261 0h1M267 0h1" />
<path stroke="#fffefe" d="M92 0h1M122 0h1M184 0h1M249 0h1M254 0h1" />
<path stroke="#fefeff" d="M234 0h1" />
<path stroke="#fefefe" d="M237 0h1" />
<path stroke="#000001" d="M279 0h1M32 1h1M34 1h1M42 1h1M46 1h1M55 1h1M74 1h1M80 1h2M102 1h1M107 1h1M111 1h1M116 1h1M124 1h1M152 1h1M162 1h1M167 1h1M172 1h2M178 1h1M181 1h1M193 1h2M196 1h1M210 1h1M214 1h1M225 1h1M227 1h1M229 1h1M235 1h1M254 1h1M262 1h1M279 1h1" />
<path stroke="#000100" d="M3 1h1M22 1h1M25 1h1M29 1h1M50 1h1M54 1h1M78 1h1M92 1h1M95 1h1M115 1h1M133 1h1M148 1h1M156 1h1M160 1h1M163 1h1M171 1h1M174 1h1M179 1h1M183 1h1M190 1h1M204 1h1M234 1h1M266 1h2M272 1h1" />
<path stroke="#010000" d="M6 1h1M8 1h1M31 1h1M35 1h1M51 1h1M56 1h1M68 1h2M71 1h1M87 1h1M109 1h1M118 1h1M122 1h2M144 1h1M154 1h1M158 1h1M165 1h1M187 1h2M197 1h1M199 1h2M206 1h1M211 1h1M217 1h1M224 1h1M228 1h1M230 1h1M243 1h1M245 1h1M247 1h1M265 1h1M277 1h1" />
<path stroke="#010001" d="M12 1h1M16 1h1M63 1h1M65 1h1M89 1h1M151 1h1M270 1h1" />
<path stroke="#000101" d="M52 1h1M67 1h1M73 1h1M93 1h1M125 1h1M131 1h1M203 1h1M213 1h1M215 1h2M263 1h1" />
<path stroke="#010100" d="M121 1h1M246 1h1M271 1h1M275 1h1" />
<path stroke="#010101" d="M126 1h1" />
</svg>