<svg xmlns="http://www.w3.org/2000/svg" viewBox="0 -0.5 91 9" shape-rendering="crispEdges">
<path stroke="#ffffff" d="M1 0h2M38 0h1M77 0h1M1 1h2M38 1h1M64 1h2M81 1h2M1 2h2M5 2h2M8 2h2M12 2h2M15 2h3M19 2h2M22 2h3M28 2h3M33 2h1M35 2h2M38 2h1M42 2h2M45 2h1M56 2h1M59 2h4M64 2h4M72 2h4M77 2h2M80 2h1M86 2h1M88 2h2M2 3h1M6 3h1M8 3h2M12 3h1M16 3h2M19 3h3M23 3h2M26 3h2M29 3h2M32 3h2M35 3h2M41 3h3M51 3h1M53 3h1M56 3h1M59 3h3M64 3h2M71 3h3M77 3h1M80 3h2M83 3h1M85 3h2M88 3h2M2 6h1M6 6h2M9 6h1M12 6h2M17 6h1M19 6h1M23 6h2M27 6h5M34 6h2M41 6h3M50 6h1M55 6h2M59 6h4M64 6h1M66 6h2M71 6h2M74 6h1M77 6h1M81 6h1M83 6h1M85 6h2M88 6h2M33 7h1" />
<path stroke="#feffff" d="M39 0h1M78 0h1M55 2h1M82 2h1M69 3h1M78 3h1M87 3h1M3 6h1M51 6h1M78 6h1M87 6h1" />
<path stroke="#fffeff" d="M39 1h1M32 2h1M44 2h1M50 2h1M68 2h1M83 2h1M1 3h1M13 3h1M55 3h1M58 3h1M82 3h1M10 6h1M16 6h1M58 6h1M73 6h1M82 6h1" />
<path stroke="#fffffe" d="M27 2h1M39 2h1M51 2h1M81 2h1M87 2h1M5 3h1M14 3h1M50 3h1M62 3h1M68 3h1M8 6h1M20 6h1M44 6h1M65 6h1M68 6h1M34 7h1" />
<path stroke="#000000" d="M37 2h1M40 2h1M0 3h1M3 3h2M10 3h2M15 3h1M18 3h1M25 3h1M28 3h1M31 3h1M34 3h1M37 3h2M40 3h1M44 3h1M46 3h1M49 3h1M52 3h1M54 3h1M63 3h1M67 3h1M70 3h1M74 3h2M84 3h1M90 3h1M0 4h1M3 4h2M7 4h1M10 4h2M15 4h1M18 4h1M21 4h2M25 4h1M28 4h1M31 4h1M37 4h1M40 4h1M46 4h1M49 4h1M57 4h1M66 4h2M76 4h1M79 4h2M83 4h1M90 4h1M0 5h1M4 5h1M15 5h1M21 5h2M32 5h1M37 5h1M40 5h3M53 5h1M57 5h1M60 5h2M63 5h1M70 5h2M79 5h2M87 5h3M1 6h1M4 6h2M11 6h1M15 6h1M18 6h1M21 6h2M25 6h1M32 6h1M36 6h1M40 6h1M49 6h1M52 6h1M54 6h1M57 6h1M63 6h1M69 6h2M76 6h1M79 6h2M84 6h1M2 7h2M6 7h2M9 7h6M16 7h1M18 7h2M21 7h1M24 7h2M27 7h6M35 7h1M42 7h1M44 7h1M49 7h3M55 7h12M68 7h1M70 7h4M76 7h4M82 7h4M87 7h4M32 8h3" />
<path stroke="#000100" d="M7 3h1M22 3h1M76 3h1M79 3h1M63 4h1M84 4h1M11 5h1M14 5h1M62 5h1M81 7h1" />
<path stroke="#010000" d="M39 3h1M45 3h1M57 3h1M66 3h1M14 4h1M25 5h1M46 5h1M49 5h1M76 5h1M33 6h1M45 6h1M75 6h1M90 6h1M8 7h1M17 7h1M20 7h1M23 7h1M41 7h1M74 7h1M86 7h1" />
<path stroke="#c0dcc1" d="M1 4h1M43 4h1M58 4h1M33 5h1M54 5h1M69 5h1" />
<path stroke="#c1dcc0" d="M2 4h1M17 4h1M59 4h1M74 4h1M89 4h1M13 5h1" />
<path stroke="#c0dcc0" d="M5 4h2M8 4h1M12 4h2M16 4h1M19 4h2M23 4h2M26 4h2M29 4h2M32 4h5M41 4h2M44 4h2M50 4h7M60 4h3M64 4h2M68 4h2M71 4h3M75 4h1M77 4h2M81 4h2M85 4h2M88 4h1M1 5h1M3 5h1M5 5h6M12 5h1M16 5h2M19 5h2M23 5h2M26 5h6M34 5h3M43 5h3M50 5h3M55 5h2M58 5h2M64 5h5M73 5h3M78 5h1M81 5h3M85 5h2" />
<path stroke="#c0ddc0" d="M9 4h1M87 4h1M2 5h1M77 5h1" />
<path stroke="#000001" d="M70 4h1M18 5h1M72 5h1M84 5h1M90 5h1M14 6h1M26 6h1M4 7h1M40 7h1M43 7h1M67 7h1" />
</svg>