<svg xmlns="http://www.w3.org/2000/svg" viewBox="0 -0.5 90 30" shape-rendering="crispEdges">
<metadata>Made with Pixels to Svg https://codepen.io/shshaw/pen/XbxvNj</metadata>
<path stroke="#feffff" d="M6 8h1M63 10h1M72 11h1M78 11h1M81 11h1M84 11h1M33 16h1" />
<path stroke="#ffffff" d="M7 8h4M12 8h2M40 8h4M58 8h4M6 9h8M40 9h4M58 9h4M6 10h8M16 10h2M20 10h4M28 10h4M33 10h3M48 10h2M51 10h3M56 10h7M66 10h8M78 10h7M6 11h8M16 11h2M20 11h2M23 11h1M29 11h3M33 11h3M48 11h6M56 11h8M66 11h2M69 11h3M73 11h1M79 11h2M82 11h2M85 11h1M6 12h2M12 12h2M16 12h4M22 12h4M28 12h2M34 12h3M41 12h2M48 12h1M50 12h2M53 12h1M58 12h4M66 12h2M72 12h4M78 12h1M80 12h2M6 13h2M12 13h2M16 13h4M23 13h3M29 13h1M34 13h1M36 13h2M40 13h4M46 13h8M58 13h4M66 13h2M72 13h4M78 13h4M4 16h4M16 16h4M30 16h3M35 16h1M40 16h4M48 16h6M58 16h4M68 16h8M78 16h8M4 17h3M16 17h4M30 17h6M40 17h3M48 17h4M53 17h1M58 17h4M68 17h8M78 17h8M36 18h2M40 18h4M36 19h2M40 19h4M38 20h6M38 21h6" />
<path stroke="#fffffe" d="M11 8h1M32 10h1M50 10h1M32 11h1M68 11h1M47 12h1M35 13h1" />
<path stroke="#fffeff" d="M85 10h1M22 11h1M28 11h1M37 12h1M40 12h1M43 12h1M46 12h1M49 12h1M52 12h1M79 12h1M22 13h1M28 13h1M34 16h1M7 17h1M43 17h1M52 17h1" />
<path stroke="#000100" d="M4 12h1M70 13h1M82 13h1M79 14h1M67 17h1M16 18h1M70 18h1M31 19h1M52 19h1M70 19h1M73 19h1M85 19h1M40 23h1" />
<path stroke="#000000" d="M5 12h1M8 12h4M14 12h2M20 12h2M26 12h2M30 12h2M33 12h1M38 12h2M44 12h2M54 12h3M62 12h4M68 12h3M76 12h2M82 12h2M85 12h3M4 13h2M8 13h4M15 13h1M20 13h2M26 13h2M31 13h3M38 13h1M44 13h2M54 13h2M57 13h1M63 13h3M68 13h2M76 13h2M83 13h5M2 14h2M12 14h4M20 14h8M30 14h4M38 14h2M44 14h2M49 14h9M62 14h4M68 14h4M76 14h2M81 14h1M86 14h2M2 15h2M13 15h3M20 15h8M30 15h4M38 15h2M48 15h3M52 15h6M62 15h4M68 15h4M76 15h6M87 15h1M2 16h2M9 16h3M14 16h2M20 16h2M28 16h2M38 16h2M44 16h4M55 16h3M62 16h2M66 16h2M76 16h2M86 16h2M2 17h2M8 17h4M14 17h2M20 17h2M28 17h2M38 17h2M44 17h4M54 17h2M57 17h1M62 17h2M66 17h1M76 17h1M87 17h1M2 18h1M4 18h4M14 18h2M18 18h4M30 18h6M44 18h2M48 18h3M52 18h5M58 18h6M68 18h1M71 18h17M2 19h6M14 19h6M21 19h1M30 19h1M32 19h4M44 19h2M48 19h4M53 19h4M58 19h6M68 19h2M71 19h1M74 19h10M86 19h2M36 20h2M44 20h2M36 21h2M45 21h1M38 22h1M40 22h4M45 22h1M38 23h2M41 23h5" />
<path stroke="#000001" d="M32 12h1M71 12h1M14 13h1M56 13h1M62 13h1M71 13h1M80 14h1M44 15h1M86 15h1M8 16h1M56 17h1M77 17h1M86 17h1M17 18h1M20 19h1M44 21h1M44 22h1" />
<path stroke="#010000" d="M57 12h1M84 12h1M30 13h1M39 13h1M48 14h1M78 14h1M12 15h1M45 15h1M51 15h1M54 16h1M3 18h1M51 18h1M57 18h1M69 18h1M57 19h1M72 19h1M84 19h1M39 22h1" />
<path stroke="#c0dcc0" d="M4 14h5M10 14h2M16 14h2M19 14h1M28 14h2M34 14h4M40 14h4M46 14h2M59 14h3M66 14h2M72 14h4M83 14h3M4 15h4M9 15h3M16 15h4M28 15h2M34 15h4M40 15h4M46 15h2M58 15h4M66 15h2M72 15h3M82 15h4" />
<path stroke="#c1dcc0" d="M9 14h1M18 14h1M75 15h1" />
<path stroke="#c0ddc0" d="M58 14h1M82 14h1" />
<path stroke="#c0dcc1" d="M8 15h1" />
<path stroke="#808080" d="M36 16h1M36 17h2M38 18h2M38 19h2" />
<path stroke="#808180" d="M37 16h1" />
</svg>