<svg xmlns="http://www.w3.org/2000/svg" viewBox="0 -0.5 70 30" shape-rendering="crispEdges">
<metadata>Made with Pixels to Svg https://codepen.io/shshaw/pen/XbxvNj</metadata>
<path stroke="#ffffff" d="M10 8h8M10 9h4M15 9h3M11 10h7M20 10h2M24 10h4M34 10h6M44 10h3M48 10h2M54 10h3M58 10h4M10 11h4M15 11h3M20 11h2M26 11h2M34 11h6M44 11h2M47 11h3M55 11h1M57 11h5M10 12h1M16 12h2M21 12h3M27 12h3M32 12h4M37 12h1M39 12h1M43 12h3M53 12h3M60 12h1M10 13h1M16 13h1M20 13h4M26 13h3M32 13h6M39 13h1M42 13h4M52 13h4M60 13h2M8 16h4M20 16h4M34 16h1M36 16h2M39 16h1M42 16h8M52 16h8M8 17h4M20 17h4M34 17h6M42 17h1M44 17h2M47 17h3M53 17h7M46 18h2M46 19h2M44 20h1M44 21h2" />
<path stroke="#fffffe" d="M14 9h1M10 10h1M24 11h1M54 11h1M11 12h1M20 12h1M26 12h1M38 12h1M45 20h1" />
<path stroke="#feffff" d="M47 10h1M25 11h1M46 11h1M36 12h1M42 12h1M11 13h1M17 13h1M29 13h1M38 13h1M35 16h1M38 16h1M43 17h1M46 17h1M52 17h1" />
<path stroke="#fffeff" d="M57 10h1M14 11h1M56 11h1M52 12h1M61 12h1" />
<path stroke="#000000" d="M8 12h2M12 12h1M14 12h2M18 12h1M25 12h1M30 12h2M40 12h2M46 12h6M56 12h4M62 12h2M8 13h2M12 13h4M18 13h2M24 13h2M30 13h2M40 13h2M46 13h5M56 13h4M62 13h1M6 14h2M16 14h2M19 14h1M25 14h7M36 14h6M50 14h2M56 14h4M62 14h2M7 15h1M16 15h4M25 15h7M36 15h6M50 15h2M56 15h4M63 15h1M6 16h2M12 16h2M19 16h1M24 16h2M32 16h2M40 16h2M51 16h1M61 16h1M6 17h2M12 17h4M18 17h2M24 17h2M32 17h2M40 17h2M50 17h2M60 17h2M6 18h1M8 18h4M18 18h1M20 18h3M24 18h1M34 18h2M37 18h5M43 18h1M48 18h3M52 18h8M6 19h2M9 19h3M18 19h8M34 19h2M37 19h7M48 19h4M53 19h7M46 20h2M46 21h2M42 22h4M42 23h4" />
<path stroke="#000100" d="M13 12h1M19 12h1M51 13h1M63 13h1M15 16h1M18 16h1M60 16h1M7 18h1M19 18h1M25 18h1M36 19h1" />
<path stroke="#010000" d="M24 12h1M6 15h1M24 15h1M14 16h1M50 16h1M36 18h1M42 18h1M51 18h1M8 19h1" />
<path stroke="#c0dcc0" d="M8 14h8M20 14h3M32 14h4M42 14h1M44 14h2M47 14h2M52 14h4M60 14h1M8 15h6M15 15h1M20 15h4M32 15h4M42 15h2M45 15h5M52 15h4M60 15h2" />
<path stroke="#000001" d="M18 14h1M24 14h1M62 15h1M23 18h1M52 19h1" />
<path stroke="#c0ddc0" d="M23 14h1" />
<path stroke="#c1dcc0" d="M43 14h1M46 14h1M49 14h1M61 14h1" />
<path stroke="#c0dcc1" d="M14 15h1M44 15h1" />
<path stroke="#2a3f55" d="M44 18h2M44 19h2M42 20h2M42 21h1" />
<path stroke="#2a3e55" d="M43 21h1" />
</svg>