<?xml version="1.0" encoding="UTF-8" ?>
<svg version="1.1" width="70" height="30" xmlns="http://www.w3.org/2000/svg" shape-rendering="crispEdges">
<rect x="4" y="8" width="2" height="2" fill="#FFFFFF" />
<rect x="6" y="8" width="2" height="2" fill="#FFFFFF" />
<rect x="8" y="8" width="2" height="2" fill="#FFFFFF" />
<rect x="10" y="8" width="2" height="2" fill="#FFFFFF" />
<rect x="26" y="8" width="2" height="2" fill="#FFFFFF" />
<rect x="28" y="8" width="2" height="2" fill="#FFFFFF" />
<rect x="42" y="8" width="2" height="2" fill="#FFFFFF" />
<rect x="44" y="8" width="2" height="2" fill="#FFFFFF" />
<rect x="4" y="10" width="2" height="2" fill="#FFFFFF" />
<rect x="6" y="10" width="2" height="2" fill="#FFFFFF" />
<rect x="8" y="10" width="2" height="2" fill="#FFFFFF" />
<rect x="10" y="10" width="2" height="2" fill="#FFFFFF" />
<rect x="14" y="10" width="2" height="2" fill="#FFFFFF" />
<rect x="18" y="10" width="2" height="2" fill="#FFFFFF" />
<rect x="20" y="10" width="2" height="2" fill="#FFFFFF" />
<rect x="34" y="10" width="2" height="2" fill="#FFFFFF" />
<rect x="36" y="10" width="2" height="2" fill="#FFFFFF" />
<rect x="38" y="10" width="2" height="2" fill="#FFFFFF" />
<rect x="48" y="10" width="2" height="2" fill="#FFFFFF" />
<rect x="52" y="10" width="2" height="2" fill="#FFFFFF" />
<rect x="54" y="10" width="2" height="2" fill="#FFFFFF" />
<rect x="56" y="10" width="2" height="2" fill="#FFFFFF" />
<rect x="60" y="10" width="2" height="2" fill="#FFFFFF" />
<rect x="62" y="10" width="2" height="2" fill="#FFFFFF" />
<rect x="64" y="10" width="2" height="2" fill="#FFFFFF" />
<rect x="66" y="10" width="2" height="2" fill="#FFFFFF" />
<rect x="2" y="12" width="2" height="2" fill="#000000" />
<rect x="4" y="12" width="2" height="2" fill="#FFFFFF" />
<rect x="6" y="12" width="2" height="2" fill="#000000" />
<rect x="8" y="12" width="2" height="2" fill="#000000" />
<rect x="10" y="12" width="2" height="2" fill="#FFFFFF" />
<rect x="12" y="12" width="2" height="2" fill="#000000" />
<rect x="14" y="12" width="2" height="2" fill="#FFFFFF" />
<rect x="16" y="12" width="2" height="2" fill="#FFFFFF" />
<rect x="18" y="12" width="2" height="2" fill="#000000" />
<rect x="20" y="12" width="2" height="2" fill="#FFFFFF" />
<rect x="22" y="12" width="2" height="2" fill="#FFFFFF" />
<rect x="24" y="12" width="2" height="2" fill="#000000" />
<rect x="26" y="12" width="2" height="2" fill="#FFFFFF" />
<rect x="28" y="12" width="2" height="2" fill="#FFFFFF" />
<rect x="30" y="12" width="2" height="2" fill="#000000" />
<rect x="32" y="12" width="2" height="2" fill="#FFFFFF" />
<rect x="34" y="12" width="2" height="2" fill="#FFFFFF" />
<rect x="36" y="12" width="2" height="2" fill="#000000" />
<rect x="38" y="12" width="2" height="2" fill="#000000" />
<rect x="40" y="12" width="2" height="2" fill="#000000" />
<rect x="42" y="12" width="2" height="2" fill="#FFFFFF" />
<rect x="44" y="12" width="2" height="2" fill="#FFFFFF" />
<rect x="46" y="12" width="2" height="2" fill="#000000" />
<rect x="48" y="12" width="2" height="2" fill="#FFFFFF" />
<rect x="50" y="12" width="2" height="2" fill="#FFFFFF" />
<rect x="52" y="12" width="2" height="2" fill="#000000" />
<rect x="54" y="12" width="2" height="2" fill="#FFFFFF" />
<rect x="56" y="12" width="2" height="2" fill="#FFFFFF" />
<rect x="58" y="12" width="2" height="2" fill="#000000" />
<rect x="60" y="12" width="2" height="2" fill="#FFFFFF" />
<rect x="62" y="12" width="2" height="2" fill="#000000" />
<rect x="64" y="12" width="2" height="2" fill="#FFFFFF" />
<rect x="66" y="12" width="2" height="2" fill="#FFFFFF" />
<rect x="68" y="12" width="2" height="2" fill="#000000" />
<rect x="0" y="14" width="2" height="2" fill="#000000" />
<rect x="2" y="14" width="2" height="2" fill="#C0DCC0" />
<rect x="4" y="14" width="2" height="2" fill="#C0DCC0" />
<rect x="6" y="14" width="2" height="2" fill="#C0DCC0" />
<rect x="8" y="14" width="2" height="2" fill="#C0DCC0" />
<rect x="10" y="14" width="2" height="2" fill="#000000" />
<rect x="12" y="14" width="2" height="2" fill="#000000" />
<rect x="14" y="14" width="2" height="2" fill="#C0DCC0" />
<rect x="16" y="14" width="2" height="2" fill="#C0DCC0" />
<rect x="18" y="14" width="2" height="2" fill="#000000" />
<rect x="20" y="14" width="2" height="2" fill="#000000" />
<rect x="22" y="14" width="2" height="2" fill="#000000" />
<rect x="24" y="14" width="2" height="2" fill="#000000" />
<rect x="26" y="14" width="2" height="2" fill="#C0DCC0" />
<rect x="28" y="14" width="2" height="2" fill="#C0DCC0" />
<rect x="30" y="14" width="2" height="2" fill="#000000" />
<rect x="32" y="14" width="2" height="2" fill="#C0DCC0" />
<rect x="34" y="14" width="2" height="2" fill="#C0DCC0" />
<rect x="36" y="14" width="2" height="2" fill="#C0DCC0" />
<rect x="38" y="14" width="2" height="2" fill="#C0DCC0" />
<rect x="40" y="14" width="2" height="2" fill="#000000" />
<rect x="42" y="14" width="2" height="2" fill="#C0DCC0" />
<rect x="44" y="14" width="2" height="2" fill="#C0DCC0" />
<rect x="46" y="14" width="2" height="2" fill="#000000" />
<rect x="48" y="14" width="2" height="2" fill="#C0DCC0" />
<rect x="50" y="14" width="2" height="2" fill="#000000" />
<rect x="52" y="14" width="2" height="2" fill="#000000" />
<rect x="54" y="14" width="2" height="2" fill="#C0DCC0" />
<rect x="56" y="14" width="2" height="2" fill="#C0DCC0" />
<rect x="58" y="14" width="2" height="2" fill="#000000" />
<rect x="60" y="14" width="2" height="2" fill="#C0DCC0" />
<rect x="62" y="14" width="2" height="2" fill="#C0DCC0" />
<rect x="64" y="14" width="2" height="2" fill="#C0DCC0" />
<rect x="66" y="14" width="2" height="2" fill="#C0DCC0" />
<rect x="68" y="14" width="2" height="2" fill="#000000" />
<rect x="0" y="16" width="2" height="2" fill="#000000" />
<rect x="2" y="16" width="2" height="2" fill="#FFFFFF" />
<rect x="4" y="16" width="2" height="2" fill="#FFFFFF" />
<rect x="6" y="16" width="2" height="2" fill="#000000" />
<rect x="8" y="16" width="2" height="2" fill="#000000" />
<rect x="12" y="16" width="2" height="2" fill="#000000" />
<rect x="14" y="16" width="2" height="2" fill="#FFFFFF" />
<rect x="16" y="16" width="2" height="2" fill="#FFFFFF" />
<rect x="18" y="16" width="2" height="2" fill="#000000" />
<rect x="24" y="16" width="2" height="2" fill="#000000" />
<rect x="26" y="16" width="2" height="2" fill="#FFFFFF" />
<rect x="28" y="16" width="2" height="2" fill="#FFFFFF" />
<rect x="30" y="16" width="2" height="2" fill="#000000" />
<rect x="32" y="16" width="2" height="2" fill="#FFFFFF" />
<rect x="34" y="16" width="2" height="2" fill="#FFFFFF" />
<rect x="36" y="16" width="2" height="2" fill="#FFFFFF" />
<rect x="38" y="16" width="2" height="2" fill="#FFFFFF" />
<rect x="40" y="16" width="2" height="2" fill="#000000" />
<rect x="42" y="16" width="2" height="2" fill="#FFFFFF" />
<rect x="44" y="16" width="2" height="2" fill="#FFFFFF" />
<rect x="46" y="16" width="2" height="2" fill="#000000" />
<rect x="48" y="16" width="2" height="2" fill="#FFFFFF" />
<rect x="50" y="16" width="2" height="2" fill="#000000" />
<rect x="52" y="16" width="2" height="2" fill="#000000" />
<rect x="54" y="16" width="2" height="2" fill="#FFFFFF" />
<rect x="56" y="16" width="2" height="2" fill="#FFFFFF" />
<rect x="58" y="16" width="2" height="2" fill="#000000" />
<rect x="60" y="16" width="2" height="2" fill="#000000" />
<rect x="62" y="16" width="2" height="2" fill="#000000" />
<rect x="64" y="16" width="2" height="2" fill="#C0DCC0" />
<rect x="66" y="16" width="2" height="2" fill="#C0DCC0" />
<rect x="68" y="16" width="2" height="2" fill="#000000" />
<rect x="0" y="18" width="2" height="2" fill="#000000" />
<rect x="2" y="18" width="2" height="2" fill="#000000" />
<rect x="4" y="18" width="2" height="2" fill="#000000" />
<rect x="12" y="18" width="2" height="2" fill="#000000" />
<rect x="14" y="18" width="2" height="2" fill="#000000" />
<rect x="16" y="18" width="2" height="2" fill="#000000" />
<rect x="18" y="18" width="2" height="2" fill="#000000" />
<rect x="24" y="18" width="2" height="2" fill="#000000" />
<rect x="26" y="18" width="2" height="2" fill="#000000" />
<rect x="28" y="18" width="2" height="2" fill="#000000" />
<rect x="30" y="18" width="2" height="2" fill="#000000" />
<rect x="32" y="18" width="2" height="2" fill="#000000" />
<rect x="34" y="18" width="2" height="2" fill="#000000" />
<rect x="36" y="18" width="2" height="2" fill="#000000" />
<rect x="38" y="18" width="2" height="2" fill="#000000" />
<rect x="42" y="18" width="2" height="2" fill="#000000" />
<rect x="44" y="18" width="2" height="2" fill="#000000" />
<rect x="46" y="18" width="2" height="2" fill="#000000" />
<rect x="48" y="18" width="2" height="2" fill="#000000" />
<rect x="50" y="18" width="2" height="2" fill="#000000" />
<rect x="54" y="18" width="2" height="2" fill="#000000" />
<rect x="56" y="18" width="2" height="2" fill="#000000" />
<rect x="58" y="18" width="2" height="2" fill="#FFFFFF" />
<rect x="60" y="18" width="2" height="2" fill="#FFFFFF" />
<rect x="62" y="18" width="2" height="2" fill="#000000" />
<rect x="64" y="18" width="2" height="2" fill="#FFFFFF" />
<rect x="66" y="18" width="2" height="2" fill="#FFFFFF" />
<rect x="68" y="18" width="2" height="2" fill="#000000" />
<rect x="56" y="20" width="2" height="2" fill="#000000" />
<rect x="58" y="20" width="2" height="2" fill="#FFFFFF" />
<rect x="60" y="20" width="2" height="2" fill="#FFFFFF" />
<rect x="62" y="20" width="2" height="2" fill="#FFFFFF" />
<rect x="64" y="20" width="2" height="2" fill="#FFFFFF" />
<rect x="66" y="20" width="2" height="2" fill="#000000" />
<rect x="58" y="22" width="2" height="2" fill="#000000" />
<rect x="60" y="22" width="2" height="2" fill="#000000" />
<rect x="62" y="22" width="2" height="2" fill="#000000" />
<rect x="64" y="22" width="2" height="2" fill="#000000" />
</svg>