<?xml version="1.0" encoding="UTF-8" ?>
<svg version="1.1" width="90" height="30" xmlns="http://www.w3.org/2000/svg" shape-rendering="crispEdges">
<rect x="0" y="20" width="2" height="2" fill="#FFFFFF" />
<rect x="2" y="20" width="2" height="2" fill="#FFFFFF" />
<rect x="4" y="20" width="2" height="2" fill="#FFFFFF" />
<rect x="6" y="20" width="2" height="2" fill="#FFFFFF" />
<rect x="8" y="20" width="2" height="2" fill="#FFFFFF" />
<rect x="10" y="20" width="2" height="2" fill="#FFFFFF" />
<rect x="12" y="20" width="2" height="2" fill="#FFFFFF" />
<rect x="14" y="20" width="2" height="2" fill="#FFFFFF" />
<rect x="16" y="20" width="2" height="2" fill="#FFFFFF" />
<rect x="18" y="20" width="2" height="2" fill="#FFFFFF" />
<rect x="20" y="20" width="2" height="2" fill="#FFFFFF" />
<rect x="22" y="20" width="2" height="2" fill="#FFFFFF" />
<rect x="24" y="20" width="2" height="2" fill="#FFFFFF" />
<rect x="26" y="20" width="2" height="2" fill="#FFFFFF" />
<rect x="28" y="20" width="2" height="2" fill="#FFFFFF" />
<rect x="30" y="20" width="2" height="2" fill="#FFFFFF" />
<rect x="32" y="20" width="2" height="2" fill="#FFFFFF" />
<rect x="34" y="20" width="2" height="2" fill="#FFFFFF" />
<rect x="36" y="20" width="2" height="2" fill="#FFFFFF" />
<rect x="38" y="20" width="2" height="2" fill="#FFFFFF" />
<rect x="40" y="20" width="2" height="2" fill="#FFFFFF" />
<rect x="42" y="20" width="2" height="2" fill="#FFFFFF" />
<rect x="44" y="20" width="2" height="2" fill="#FFFFFF" />
<rect x="46" y="20" width="2" height="2" fill="#FFFFFF" />
<rect x="48" y="20" width="2" height="2" fill="#FFFFFF" />
<rect x="50" y="20" width="2" height="2" fill="#FFFFFF" />
<rect x="52" y="20" width="2" height="2" fill="#FFFFFF" />
<rect x="54" y="20" width="2" height="2" fill="#FFFFFF" />
<rect x="56" y="20" width="2" height="2" fill="#FFFFFF" />
<rect x="58" y="20" width="2" height="2" fill="#FFFFFF" />
<rect x="60" y="20" width="2" height="2" fill="#FFFFFF" />
<rect x="62" y="20" width="2" height="2" fill="#FFFFFF" />
<rect x="64" y="20" width="2" height="2" fill="#FFFFFF" />
<rect x="66" y="20" width="2" height="2" fill="#FFFFFF" />
<rect x="68" y="20" width="2" height="2" fill="#FFFFFF" />
<rect x="70" y="20" width="2" height="2" fill="#FFFFFF" />
<rect x="72" y="20" width="2" height="2" fill="#FFFFFF" />
<rect x="74" y="20" width="2" height="2" fill="#FFFFFF" />
<rect x="76" y="20" width="2" height="2" fill="#FFFFFF" />
<rect x="78" y="20" width="2" height="2" fill="#FFFFFF" />
<rect x="80" y="20" width="2" height="2" fill="#FFFFFF" />
<rect x="82" y="20" width="2" height="2" fill="#FFFFFF" />
<rect x="84" y="20" width="2" height="2" fill="#FFFFFF" />
<rect x="86" y="20" width="2" height="2" fill="#FFFFFF" />
<rect x="88" y="20" width="2" height="2" fill="#FFFFFF" />
<rect x="0" y="22" width="2" height="2" fill="#000000" />
<rect x="2" y="22" width="2" height="2" fill="#000000" />
<rect x="4" y="22" width="2" height="2" fill="#000000" />
<rect x="6" y="22" width="2" height="2" fill="#000000" />
<rect x="8" y="22" width="2" height="2" fill="#000000" />
<rect x="10" y="22" width="2" height="2" fill="#000000" />
<rect x="12" y="22" width="2" height="2" fill="#000000" />
<rect x="14" y="22" width="2" height="2" fill="#000000" />
<rect x="16" y="22" width="2" height="2" fill="#000000" />
<rect x="18" y="22" width="2" height="2" fill="#000000" />
<rect x="20" y="22" width="2" height="2" fill="#000000" />
<rect x="22" y="22" width="2" height="2" fill="#000000" />
<rect x="24" y="22" width="2" height="2" fill="#000000" />
<rect x="26" y="22" width="2" height="2" fill="#000000" />
<rect x="28" y="22" width="2" height="2" fill="#000000" />
<rect x="30" y="22" width="2" height="2" fill="#000000" />
<rect x="32" y="22" width="2" height="2" fill="#000000" />
<rect x="34" y="22" width="2" height="2" fill="#000000" />
<rect x="36" y="22" width="2" height="2" fill="#000000" />
<rect x="38" y="22" width="2" height="2" fill="#000000" />
<rect x="40" y="22" width="2" height="2" fill="#000000" />
<rect x="42" y="22" width="2" height="2" fill="#000000" />
<rect x="44" y="22" width="2" height="2" fill="#000000" />
<rect x="46" y="22" width="2" height="2" fill="#000000" />
<rect x="48" y="22" width="2" height="2" fill="#000000" />
<rect x="50" y="22" width="2" height="2" fill="#000000" />
<rect x="52" y="22" width="2" height="2" fill="#000000" />
<rect x="54" y="22" width="2" height="2" fill="#000000" />
<rect x="56" y="22" width="2" height="2" fill="#000000" />
<rect x="58" y="22" width="2" height="2" fill="#000000" />
<rect x="60" y="22" width="2" height="2" fill="#000000" />
<rect x="62" y="22" width="2" height="2" fill="#000000" />
<rect x="64" y="22" width="2" height="2" fill="#000000" />
<rect x="66" y="22" width="2" height="2" fill="#000000" />
<rect x="68" y="22" width="2" height="2" fill="#000000" />
<rect x="70" y="22" width="2" height="2" fill="#000000" />
<rect x="72" y="22" width="2" height="2" fill="#000000" />
<rect x="74" y="22" width="2" height="2" fill="#000000" />
<rect x="76" y="22" width="2" height="2" fill="#000000" />
<rect x="78" y="22" width="2" height="2" fill="#000000" />
<rect x="80" y="22" width="2" height="2" fill="#000000" />
<rect x="82" y="22" width="2" height="2" fill="#000000" />
<rect x="84" y="22" width="2" height="2" fill="#000000" />
<rect x="86" y="22" width="2" height="2" fill="#000000" />
<rect x="88" y="22" width="2" height="2" fill="#000000" />
</svg>