<svg xmlns="http://www.w3.org/2000/svg" viewBox="0 -0.5 84 20" shape-rendering="crispEdges">
<metadata>Made with Pixels to Svg https://codepen.io/shshaw/pen/XbxvNj</metadata>
<path stroke="#543fff" d="M1 1h1M10 1h1M16 1h1M12 2h1M18 2h1M2 3h1M5 3h1M8 3h1M17 3h2M3 4h1M3 5h1M15 5h1M18 5h1M16 7h1M2 9h1M12 9h1M18 14h1M3 15h1M5 15h1M11 15h1M14 15h1M1 16h1M13 16h1M16 16h1M9 17h1M12 17h1M18 17h1" />
<path stroke="#553fff" d="M2 1h1M4 1h1M6 1h2M9 1h1M13 1h3M1 2h7M9 2h2M13 2h1M15 2h1M1 3h1M6 3h1M9 3h1M11 3h2M1 4h2M4 4h1M10 4h1M16 4h3M4 5h1M16 5h1M2 6h1M16 6h1M18 6h1M1 7h3M18 7h1M1 8h1M16 8h3M1 9h1M8 9h1M18 9h1M1 10h2M7 10h2M17 10h2M17 11h2M1 12h2M17 12h1M1 13h2M8 13h2M11 13h1M17 13h2M1 14h3M8 14h2M17 14h1M2 15h1M6 15h5M12 15h2M17 15h1M3 16h3M7 16h1M10 16h3M1 17h8M11 17h1M14 17h4" />
<path stroke="#553ffe" d="M3 1h1M12 1h1M17 1h2M8 2h1M11 2h1M14 2h1M17 2h1M4 3h1M7 3h1M13 3h1M16 3h1M9 4h1M15 4h1M2 5h1M17 5h1M1 6h1M17 6h1M2 8h1M12 10h1M2 11h1M11 14h1M1 15h1M6 16h1M9 16h1M15 16h1M18 16h1" />
<path stroke="#553eff" d="M5 1h1M8 1h1M16 2h1M10 3h1M15 3h1M1 5h1M3 6h1M17 7h1M11 10h1M1 11h1M18 12h1M10 14h1M16 14h1M4 15h1M15 15h2M18 15h1M2 16h1M8 16h1M14 16h1M17 16h1M10 17h1M13 17h1" />
<path stroke="#553efe" d="M11 1h1" />
<path stroke="#2a9fff" d="M22 1h12M35 1h5M22 2h1M24 2h6M31 2h4M36 2h1M38 2h2M22 3h11M34 3h3M38 3h2M22 4h9M35 4h1M38 4h2M22 5h3M27 5h2M30 5h1M38 5h2M22 6h2M29 6h2M37 6h3M22 7h3M36 7h4M22 8h3M26 8h1M36 8h4M22 9h1M24 9h2M36 9h4M22 10h1M25 10h1M35 10h1M38 10h2M22 11h6M35 11h2M39 11h1M22 12h5M35 12h3M22 13h3M35 13h1M39 13h1M22 14h4M32 14h8M23 15h3M27 15h13M22 16h1M24 16h8M33 16h4M38 16h2M22 17h1M24 17h16" />
<path stroke="#2a9eff" d="M34 1h1M37 2h1M37 3h1M37 4h1M37 5h1M37 10h1M37 11h1M34 13h1M37 13h1M22 15h1M37 16h1" />
<path stroke="#4964d4" d="M43 1h1M49 1h1M43 2h1M43 3h1" />
<path stroke="#4965d4" d="M44 1h5M50 1h2M44 2h7M52 2h1M44 3h1M46 3h1M43 4h3M43 5h1" />
<path stroke="#803cac" d="M52 1h1M54 1h4M51 2h1M53 2h4M58 2h1M57 3h1M44 5h1M49 5h2M52 5h1M43 6h2M48 6h2M43 7h1M47 7h1M49 7h1" />
<path stroke="#4965d5" d="M53 1h1" />
<path stroke="#b831a7" d="M58 1h3M57 2h1M59 2h1M58 3h1M60 3h1M59 4h1M51 5h1M50 6h1M52 6h1" />
<path stroke="#2abf55" d="M64 1h11M76 1h1M78 1h4M64 2h5M70 2h5M76 2h4M81 2h1M64 3h2M67 3h15M64 4h1M66 4h1M68 4h9M78 4h1M80 4h2M64 5h4M75 5h3M79 5h3M64 6h2M77 6h5M64 7h2M80 7h2M64 8h3M69 8h4M74 8h3M80 8h2M64 9h3M76 9h6M64 10h3M78 10h2M81 10h1M65 11h1M67 11h1M69 11h7M79 11h3M65 12h2M77 12h4M64 13h3M70 13h3M77 13h5M64 14h9M74 14h1M77 14h1M79 14h3M64 15h5M70 15h10M81 15h1M64 16h5M70 16h7M79 16h3M64 17h4M69 17h1M71 17h5M77 17h3M81 17h1" />
<path stroke="#2bbf55" d="M75 1h1M69 2h1M75 2h1M66 3h1M78 5h1M66 11h1M81 12h1M78 14h1M69 15h1M69 16h1M78 16h1" />
<path stroke="#2abf54" d="M77 1h1M80 2h1M65 4h1M77 4h1M68 8h1M80 10h1M68 11h1M80 15h1M77 16h1M68 17h1M80 17h1" />
<path stroke="#000100" d="M19 2h1M40 2h1M61 2h1M82 2h1M19 3h1M61 4h1M61 10h1M70 12h1M19 13h1M40 13h1M19 14h1M40 14h1M82 14h1M19 15h1M6 18h1M9 18h1M27 18h1M30 18h1M46 18h1M48 18h1M51 18h1M69 18h1" />
<path stroke="#2a9ffe" d="M23 2h1M35 2h1M29 5h1M23 9h1M23 10h1M38 11h1M38 12h1M38 13h1M26 15h1M23 16h1M32 16h1M23 17h1" />
<path stroke="#2b9fff" d="M30 2h1M33 3h1M24 6h1M24 10h1M36 10h1M39 12h1M36 13h1" />
<path stroke="#de2d74" d="M60 2h1M59 3h1M58 4h1M60 4h1M59 5h1M59 6h2M59 7h2M51 8h1M56 8h1M59 8h2M59 9h2M55 10h1M59 10h1M56 11h1M59 11h2M59 12h1M60 13h1M59 14h2M58 15h1M60 15h1M59 16h2M58 17h1M60 17h1" />
<path stroke="#543eff" d="M3 3h1M10 13h1" />
<path stroke="#543ffe" d="M14 3h1M17 9h1" />
<path stroke="#000000" d="M40 3h1M61 3h1M82 3h1M19 4h1M40 4h1M82 4h1M19 5h1M40 5h1M61 5h1M82 5h1M67 6h2M70 6h5M76 6h1M19 7h1M40 7h1M61 7h1M76 7h3M82 7h1M19 8h1M40 8h1M61 8h1M78 8h1M82 8h1M68 9h1M70 9h4M40 10h1M75 10h2M82 10h1M19 11h1M40 12h1M61 12h1M69 12h1M71 12h3M82 12h1M61 13h1M75 13h1M82 13h1M61 14h1M40 16h1M61 16h1M82 16h1M19 17h1M40 17h1M61 17h1M82 17h1M2 18h4M7 18h1M10 18h1M12 18h1M15 18h2M19 18h1M23 18h1M25 18h2M28 18h2M31 18h3M36 18h2M39 18h2M45 18h1M49 18h2M52 18h3M58 18h1M60 18h2M65 18h4M70 18h2M73 18h1M75 18h1M78 18h2M81 18h2" />
<path stroke="#4865d4" d="M45 3h1" />
<path stroke="#d585ca" d="M47 3h1M45 5h1M54 5h1M58 5h1" />
<path stroke="#fffffe" d="M48 3h4M53 3h3M6 4h1M46 4h2M49 4h9M5 5h1M8 5h1M11 5h1M35 5h1M46 5h2M55 5h1M57 5h1M11 6h1M45 6h2M55 6h4M32 7h1M45 7h2M50 7h1M52 7h2M55 7h1M57 7h1M5 8h1M14 8h1M32 8h1M45 8h2M49 8h2M53 8h2M57 8h1M4 9h1M13 9h1M45 9h1M49 9h2M54 9h1M57 9h1M3 10h1M6 10h1M15 10h1M45 10h2M49 10h2M53 10h2M57 10h2M5 11h1M11 11h1M46 11h1M50 11h1M52 11h2M58 11h1M7 12h1M16 12h1M45 12h2M57 12h1M15 13h1M47 13h1M56 13h1M5 14h1M47 14h1M49 14h9M48 15h5M54 15h2" />
<path stroke="#fffefe" d="M52 3h1M8 7h1M58 7h1M58 8h1M46 9h1M58 9h1M58 12h1M46 13h1M46 14h1" />
<path stroke="#d585cb" d="M56 3h1" />
<path stroke="#557eff" d="M5 4h1M3 9h1" />
<path stroke="#feffff" d="M7 4h1M6 5h1M9 5h1M12 5h1M6 6h1M12 6h1M36 6h1M4 7h1M13 7h1M6 8h1M12 8h1M27 8h1M5 9h1M14 9h1M13 10h1M27 10h1M3 11h1M12 11h1M15 11h1M9 12h1M11 12h1M30 13h1" />
<path stroke="#555fff" d="M8 4h1M3 8h1M13 12h1M7 13h1M4 14h1" />
<path stroke="#555eff" d="M11 4h1M6 12h1" />
<path stroke="#ffffff" d="M12 4h2M33 4h1M36 4h1M7 5h1M13 5h2M25 5h1M32 5h2M7 6h4M13 6h2M26 6h2M31 6h5M6 7h2M9 7h1M11 7h2M14 7h2M26 7h6M33 7h3M7 8h5M15 8h1M28 8h4M33 8h3M6 9h1M9 9h2M26 9h9M53 9h1M4 10h2M10 10h1M14 10h1M16 10h1M28 10h7M4 11h1M6 11h4M14 11h1M16 11h1M29 11h6M3 12h3M8 12h1M10 12h1M12 12h1M14 12h1M28 12h6M4 13h3M14 13h1M26 13h4M31 13h2M6 14h1M13 14h2M28 14h2M53 15h1" />
<path stroke="#557fff" d="M14 4h1M15 6h1M7 9h1M3 13h1M7 14h1M12 14h1" />
<path stroke="#55bfff" d="M31 4h1M28 6h1M25 7h1M26 10h1M27 12h1M34 12h1M25 13h1M33 13h1M26 14h1M31 14h1" />
<path stroke="#aaffff" d="M32 4h1M34 4h1M31 5h1M25 6h1M25 8h1M35 9h1M28 11h1M27 14h1M30 14h1" />
<path stroke="#fefffe" d="M48 4h1M5 6h1M54 6h1M51 7h1M9 10h1M45 11h1M51 11h1M57 11h1M57 13h1M48 14h1" />
<path stroke="#2abe55" d="M67 4h1M79 4h1M67 8h1M73 8h1M64 11h1M64 12h1M76 12h1M73 13h1M73 14h1M70 17h1M76 17h1" />
<path stroke="#fffeff" d="M10 5h1M34 5h1M5 7h1M4 8h1M13 8h1M15 9h1M10 11h1M13 11h1M15 12h1" />
<path stroke="#55bffe" d="M26 5h1" />
<path stroke="#54bfff" d="M36 5h1" />
<path stroke="#c85eba" d="M48 5h1M56 5h1M47 6h1" />
<path stroke="#b933a8" d="M53 5h1" />
<path stroke="#df2d74" d="M60 5h1M60 10h1M60 12h1" />
<path stroke="#009932" d="M68 5h1" />
<path stroke="#006633" d="M69 5h5M68 7h1M74 7h1M77 8h1M79 8h1M67 9h1M75 9h1M73 10h1M77 10h1M67 13h1M76 14h1" />
<path stroke="#009933" d="M74 5h1M66 6h1M66 7h1M69 7h3M73 7h1M69 10h1M71 10h2M76 11h1M78 11h1M67 12h1M75 12h1M68 13h2M75 14h1" />
<path stroke="#557efe" d="M4 6h1" />
<path stroke="#000101" d="M19 6h1" />
<path stroke="#000001" d="M40 6h1M61 6h1M82 6h1M19 9h1M40 9h1M61 9h1M82 9h1M40 11h1M61 11h1M77 11h1M82 11h1M19 12h1M8 18h1M11 18h1M13 18h1M34 18h1M44 18h1M47 18h1M55 18h1M74 18h1M76 18h1" />
<path stroke="#813cac" d="M51 6h1" />
<path stroke="#bc3cab" d="M53 6h1" />
<path stroke="#010000" d="M69 6h1M75 6h1M69 9h1M19 10h1M40 15h1M61 15h1M82 15h1M14 18h1M17 18h2M24 18h1M35 18h1M38 18h1M56 18h2M59 18h1M80 18h1" />
<path stroke="#fefeff" d="M10 7h1M13 13h1" />
<path stroke="#c23d78" d="M44 7h1M48 7h1M43 8h1M47 8h1" />
<path stroke="#e971a1" d="M54 7h1" />
<path stroke="#e34a87" d="M56 7h1" />
<path stroke="#003300" d="M67 7h1M75 7h1M74 9h1M67 10h2M68 12h1M74 12h1M76 13h1" />
<path stroke="#019933" d="M72 7h1" />
<path stroke="#009833" d="M79 7h1M70 10h1" />
<path stroke="#ed5748" d="M44 8h1" />
<path stroke="#ed5749" d="M48 8h1M52 8h1M43 9h2M47 9h2M51 9h2M43 10h1M47 10h1M51 10h1M56 10h1M54 11h1M52 12h1M54 12h2M53 13h1M55 13h1M59 13h1M58 14h1M59 15h1M56 16h3M56 17h2M59 17h1" />
<path stroke="#df367a" d="M55 8h1" />
<path stroke="#557ffe" d="M11 9h1M16 9h1" />
<path stroke="#de2c74" d="M55 9h1" />
<path stroke="#de2d75" d="M56 9h1" />
<path stroke="#f9792a" d="M44 10h1M53 17h1" />
<path stroke="#f9792b" d="M48 10h1M43 11h2M47 11h3M43 12h2M49 12h3M53 12h1M51 13h2M54 13h1M52 16h1M54 16h1M54 17h1" />
<path stroke="#ed5649" d="M52 10h1M55 11h1M55 17h1" />
<path stroke="#003301" d="M74 10h1" />
<path stroke="#fa9d3b" d="M47 12h1M56 12h1M43 13h2M48 13h1M50 13h1M58 13h1M43 14h3M44 15h1M56 15h1M43 16h1M51 16h1M53 16h1M43 17h1M51 17h2" />
<path stroke="#f8792b" d="M48 12h1" />
<path stroke="#545ffe" d="M12 13h1" />
<path stroke="#547fff" d="M16 13h1" />
<path stroke="#fec762" d="M45 13h1M45 15h1M44 16h4M50 16h1M44 17h2M47 17h2M50 17h1" />
<path stroke="#f9782b" d="M49 13h1M55 16h1" />
<path stroke="#006600" d="M74 13h1" />
<path stroke="#545fff" d="M15 14h1" />
<path stroke="#fa9c3b" d="M43 15h1" />
<path stroke="#fec662" d="M46 15h1M49 16h1M46 17h1M49 17h1" />
<path stroke="#ffff55" d="M47 15h1" />
<path stroke="#ec5749" d="M57 15h1" />
<path stroke="#010100" d="M19 16h1M72 18h1" />
<path stroke="#ffc762" d="M48 16h1" />
<path stroke="#010001" d="M77 18h1" />
</svg>