<svg xmlns="http://www.w3.org/2000/svg" viewBox="0 -0.5 11 270" shape-rendering="crispEdges">
<metadata>Made with Pixels to Svg https://codepen.io/shshaw/pen/XbxvNj</metadata>
<path stroke="#2a3f55" d="M3 1h2M6 1h1M2 2h1M7 2h1M1 3h1M8 3h1M1 4h1M8 4h1M0 5h1M9 5h1M0 6h1M4 6h2M9 6h1M0 7h1M4 7h2M9 7h1M0 8h1M4 8h2M9 8h1M0 9h1M4 9h1M4 10h1M9 10h1M1 22h1M8 22h1M1 23h2M7 23h2M2 24h6M3 25h3M3 26h4M3 28h5M3 29h1M7 29h1M3 30h1M7 30h1M2 31h1M2 32h1M7 32h1M1 33h1M7 33h1M1 34h1M7 34h1M0 35h1M7 35h1M0 36h1M7 36h1M7 37h1M2 39h1M1 40h2M1 41h2M1 51h8M1 52h8M1 53h3M5 53h4M3 55h1M5 55h2M2 56h1M7 56h1M1 57h1M8 57h1M0 58h1M9 58h1M0 59h1M9 59h1M0 60h1M4 60h2M9 60h1M0 61h1M4 61h2M9 61h1M1 62h5M9 62h1M1 63h3M5 63h1M9 63h1M4 64h1M9 64h1M4 65h1M8 65h1M8 67h1M7 68h1M6 69h2M6 70h1M5 71h2M5 72h1M5 73h1M1 78h1M3 78h4M8 78h1M1 79h8M1 80h8M3 82h4M2 83h1M7 83h1M8 84h1M0 85h1M0 86h1M9 86h1M0 87h1M4 87h2M9 87h1M0 88h1M5 88h1M1 89h5M9 89h1M2 90h2M9 90h1M4 95h1M4 96h1M3 97h2M1 103h1M8 103h1M1 104h1M7 104h2M2 105h6M3 106h3M3 107h3M2 109h8M2 110h1M6 110h1M10 110h1M2 111h1M6 111h1M10 111h1M2 112h1M6 112h1M10 112h1M2 113h1M6 113h1M10 113h1M1 114h1M6 114h1M10 114h1M1 115h1M5 115h2M10 115h1M5 116h2M10 116h1M5 117h2M5 118h2M1 122h5M1 123h5M1 124h5M7 132h3M8 133h2M7 134h1M9 134h1M0 136h6M7 136h3M0 137h1M9 137h1M0 138h1M0 139h1M9 139h1M0 140h1M4 140h5M0 141h1M4 141h5M0 142h1M4 142h1M0 143h1M4 143h1M4 144h2M1 148h4M1 149h4M1 150h4M1 156h1M8 156h1M1 157h1M8 157h1M1 158h2M7 158h2M2 159h2M5 159h3M2 160h6M3 161h3M3 163h4M2 164h1M7 164h1M1 165h1M8 165h1M1 166h1M8 166h1M0 167h1M9 167h1M0 168h1M5 168h1M0 169h1M4 169h2M9 169h1M0 170h1M4 170h5M6 171h3M4 177h2M4 178h2M4 179h1M1 184h1M8 184h1M1 185h1M7 185h2M1 186h2M4 186h5M2 187h6M3 188h4M2 190h5M8 190h2M0 191h1M9 191h1M0 192h1M9 192h1M0 193h1M9 193h1M1 194h5M9 194h1M1 195h1M4 195h2M9 195h1M5 196h1M9 196h1M8 197h1M8 198h1M8 199h1M7 200h1M7 201h1M7 202h1M6 203h1M6 204h1M6 205h1M5 206h1M5 207h1M2 213h1M4 213h1M2 214h3M2 215h1M3 217h4M2 218h1M7 218h1M1 219h1M8 219h1M1 220h1M8 220h1M0 221h1M9 221h1M0 222h1M4 222h1M9 222h1M0 223h1M4 223h2M0 224h1M4 224h2M9 224h1M0 225h1M4 225h2M9 225h1M9 226h1M1 238h1M8 238h1M1 239h2M7 239h2M2 240h6M3 241h4M3 242h4M3 244h4M2 245h1M7 245h1M1 246h1M8 246h1M0 247h1M9 247h1M0 249h1M4 249h2M9 249h1M0 250h1M4 250h2M9 250h1M0 251h1M5 251h1M9 251h1M0 252h1M9 252h1M9 253h1M1 256h2M1 257h1M4 257h2M2 258h4M3 259h1M5 259h1M1 264h1M8 264h1M1 265h1M8 265h1M1 266h2M7 266h2M4 267h3M2 268h6M4 269h1M6 269h1" />
<path stroke="#2a3e55" d="M5 1h1M1 39h1M4 63h1M7 78h1M1 84h1M1 90h1M6 107h1M10 117h1M4 159h1M6 161h1M4 168h1M5 208h1M3 215h1M0 248h1M9 248h1M1 255h1M3 257h1M7 267h1M3 269h1" />
<path stroke="#fffeff" d="M3 2h1M5 4h1M8 7h1M8 19h1M5 22h1M4 57h1M7 57h1M3 77h1M5 85h1M3 86h1M3 113h1M9 116h1M1 138h1M8 139h1M3 143h1M7 168h1M2 172h1M6 185h1M4 219h1M2 223h1M8 226h1M8 235h1M3 239h1M8 253h1M3 266h1" />
<path stroke="#ffffff" d="M4 2h3M2 3h6M2 4h3M6 4h2M1 5h8M1 6h3M6 6h3M1 7h3M6 7h2M1 8h3M6 8h3M1 9h3M6 9h3M1 10h3M5 10h4M1 18h1M3 18h1M7 18h1M2 19h1M6 19h1M1 20h1M3 20h1M5 20h1M7 20h1M1 21h2M4 21h1M6 21h1M8 21h1M2 22h2M7 22h1M3 23h4M4 29h3M4 30h3M3 31h4M3 32h4M2 33h5M2 34h5M1 35h6M1 36h6M1 37h6M5 45h1M4 46h1M6 46h1M5 47h1M2 48h1M4 48h1M6 48h1M8 48h1M1 49h1M3 49h1M5 49h1M7 49h1M1 50h7M3 56h4M2 57h2M5 57h2M1 58h8M1 59h8M1 60h3M6 60h3M1 61h3M6 61h3M6 62h3M6 63h2M5 64h4M2 72h1M4 72h1M1 73h1M3 73h1M2 74h1M1 75h1M5 75h1M7 75h1M2 76h1M4 76h1M6 76h1M8 76h1M1 77h2M4 77h5M3 83h4M2 84h6M1 85h2M4 85h1M6 85h3M1 86h2M4 86h5M1 87h3M6 87h3M1 88h3M6 88h3M6 89h2M5 90h4M5 91h2M2 99h1M6 99h1M8 99h1M1 100h1M3 100h1M7 100h1M4 101h1M6 101h1M8 101h1M1 102h1M3 102h1M5 102h1M7 102h2M2 103h1M4 103h1M6 103h2M3 104h1M5 104h2M3 110h3M7 110h3M3 111h3M7 111h3M3 112h3M7 112h3M4 113h2M7 113h3M2 114h4M7 114h3M2 115h1M4 115h1M7 115h3M2 116h3M7 116h2M2 117h3M7 117h3M2 118h3M7 118h3M7 126h1M9 126h1M8 127h1M9 128h1M8 129h1M7 130h1M9 130h1M7 131h3M1 137h8M2 138h7M1 139h7M1 140h3M1 141h3M1 142h3M1 143h2M1 144h3M1 145h6M2 153h1M6 153h1M8 153h1M1 154h1M3 154h1M7 154h1M1 155h2M4 155h1M6 155h1M2 156h2M7 156h1M2 157h1M6 157h2M3 158h1M6 158h1M3 164h4M2 165h4M7 165h1M2 166h6M1 167h6M1 168h3M6 168h1M8 168h1M1 169h3M6 169h3M1 170h3M1 171h3M1 172h1M3 172h1M2 180h1M6 180h1M8 180h1M1 181h1M3 181h1M7 181h1M2 182h1M4 182h1M6 182h1M8 182h1M1 183h1M3 183h1M5 183h1M7 183h2M2 184h1M4 184h1M6 184h1M3 185h3M1 191h8M1 192h8M2 193h7M6 194h3M6 195h3M7 196h2M5 197h3M5 198h3M5 199h3M2 207h1M4 207h1M3 208h1M2 209h1M4 209h1M3 210h1M2 211h1M4 211h1M2 212h2M3 218h4M2 219h2M5 219h3M2 220h1M4 220h4M1 221h8M1 222h3M6 222h3M1 223h1M3 223h1M6 223h3M2 224h2M6 224h3M1 225h1M3 225h1M6 225h3M2 226h5M1 234h1M3 234h1M7 234h1M2 235h1M6 235h1M1 236h1M3 236h1M5 236h1M7 236h1M1 237h2M4 237h1M6 237h1M8 237h1M2 238h1M5 238h1M7 238h1M4 239h3M3 245h4M3 246h5M1 247h5M7 247h2M1 248h8M1 249h3M6 249h3M1 250h3M6 250h1M8 250h1M1 251h3M6 251h3M1 252h3M6 252h3M2 253h2M6 253h2M6 261h1M8 261h1M1 262h1M7 262h1M2 263h1M4 263h1M6 263h1M8 263h1M2 264h2M5 264h1M7 264h1M2 265h1M4 265h1M7 265h1M5 266h2" />
<path stroke="#2a3f54" d="M5 9h1M6 25h1M4 53h1M8 66h1M2 78h1M9 85h1M9 88h1M6 106h1M1 116h1M6 136h1M0 190h1M2 195h1M4 215h1M5 222h1M9 223h1M4 251h1M2 267h1" />
<path stroke="#2b3f55" d="M9 9h1M7 31h1M4 55h1M7 67h1M4 88h1M3 96h1M2 104h1M10 109h1M7 133h1M8 134h1M9 138h1M6 144h1M9 168h1M5 179h1M2 185h1M3 186h1M1 190h1M7 190h1M3 195h1M3 213h1M2 257h1M4 259h1M3 267h1M5 269h1" />
<path stroke="#000000" d="M0 10h1M4 11h1M9 11h1M0 12h1M4 12h1M9 12h1M0 13h1M4 13h1M9 13h1M0 14h1M5 14h1M0 15h1M5 15h1M0 16h1M4 16h2M9 16h1M0 17h1M4 17h2M9 17h1M0 18h1M4 18h2M9 18h1M0 19h1M4 19h2M9 19h1M9 20h1M0 21h1M9 21h1M0 22h1M9 22h1M0 23h1M9 23h1M1 24h1M8 24h1M2 25h1M7 25h1M0 37h1M0 38h1M7 38h1M0 39h1M3 39h1M7 39h1M0 40h1M3 40h1M0 41h1M3 41h1M7 41h1M3 42h1M7 42h1M3 43h1M7 43h1M3 44h1M7 44h1M3 45h1M7 45h1M3 46h1M7 46h1M0 47h4M7 47h3M0 48h1M9 48h1M0 49h1M9 49h1M0 50h1M9 50h1M0 51h1M9 51h1M0 52h1M9 52h1M0 53h1M0 62h1M0 63h1M0 64h4M9 65h1M3 66h1M9 66h1M9 67h1M2 68h1M8 68h1M2 69h1M8 69h1M1 70h1M7 70h1M1 71h1M7 71h1M6 72h1M0 73h1M4 73h1M6 73h1M0 74h1M4 74h6M0 75h1M9 75h1M0 76h1M9 76h1M0 77h1M0 78h1M9 78h1M0 79h1M0 80h1M9 80h1M8 91h1M8 92h1M2 93h1M8 93h1M2 94h1M2 95h1M2 96h1M2 97h1M9 97h1M0 98h6M9 98h1M0 99h1M4 99h2M9 99h1M0 100h1M4 100h2M9 100h1M0 101h1M9 101h1M0 102h1M9 102h1M0 103h1M9 103h1M0 104h1M9 104h1M1 105h1M8 105h1M2 106h1M7 106h1M1 117h1M1 118h1M10 118h1M0 119h1M10 119h1M0 120h1M10 120h1M0 121h1M10 121h1M0 122h1M6 122h1M10 122h1M6 123h1M10 123h1M0 124h1M6 124h1M10 124h1M6 125h1M10 125h1M6 126h1M10 126h1M6 127h1M10 127h1M6 128h1M10 128h1M6 129h1M10 129h1M6 130h1M10 130h1M10 131h1M6 132h1M10 132h1M10 133h1M6 134h1M10 134h1M9 140h1M9 141h1M5 142h2M8 142h1M0 144h1M0 145h1M7 145h1M0 146h1M8 146h1M8 147h1M0 148h1M9 148h1M0 149h1M5 149h1M9 149h1M0 150h1M9 151h1M0 152h5M9 152h1M0 153h1M4 153h2M9 153h1M0 154h1M4 154h2M9 154h1M0 155h1M0 156h1M9 156h1M0 157h1M9 157h1M0 158h1M9 158h1M1 159h1M1 160h1M8 160h1M2 161h1M7 161h1M9 170h1M0 171h1M4 171h1M9 171h1M0 172h1M4 172h3M9 172h1M0 173h1M4 173h1M6 173h1M0 174h1M7 174h1M0 175h1M8 175h1M0 176h1M9 176h1M0 177h1M9 177h1M0 178h1M0 179h1M9 179h1M0 180h1M4 180h2M9 180h1M0 181h1M4 181h2M9 181h1M9 182h1M0 183h1M9 183h1M0 184h1M9 184h1M0 185h1M9 185h1M0 186h1M9 186h1M1 187h1M8 187h1M2 188h1M7 188h1M0 194h1M0 195h1M0 196h5M4 197h1M9 197h1M4 198h1M9 198h1M4 199h1M9 199h1M3 200h1M8 200h1M3 201h1M8 201h1M8 202h1M2 203h1M7 203h1M2 204h1M7 204h1M2 205h1M7 205h1M1 206h1M6 206h1M1 207h1M6 207h1M1 208h1M6 208h1M1 209h1M5 209h1M1 210h1M5 210h1M1 211h1M5 211h1M1 212h1M5 213h1M1 214h1M1 215h1M5 215h1M0 226h1M0 227h2M9 227h1M0 228h3M7 228h3M1 229h1M8 229h1M0 230h1M9 230h1M0 231h1M4 231h2M9 231h1M0 232h1M4 232h2M9 232h1M0 233h1M4 233h2M9 233h1M0 234h1M4 234h2M9 234h1M0 235h1M4 235h2M9 235h1M0 236h1M9 236h1M0 237h1M9 237h1M0 238h1M9 238h1M0 239h1M9 239h1M1 240h1M8 240h1M2 241h1M7 241h1M5 252h1M0 253h1M4 253h2M0 254h1M9 254h1M0 255h1M9 255h1M0 256h1M9 256h1M0 257h1M9 257h1M1 258h1M9 258h1M2 259h1M9 259h1M0 260h3M4 260h2M9 260h1M0 261h1M4 261h2M9 261h1M0 262h1M4 262h2M9 262h1M0 263h1M9 263h1M0 264h1M9 264h1M0 265h1M9 265h1M0 266h1M9 266h1M1 267h1M8 267h1M8 268h1M2 269h1M7 269h1" />
<path stroke="#000100" d="M0 11h1M9 14h1M0 20h1M3 38h1M9 53h1M9 77h1M6 131h1M5 151h1M9 155h1M8 172h1M0 182h1M1 213h1M5 214h1M4 252h1M3 260h1" />
<path stroke="#c0dcc0" d="M1 11h3M5 11h4M1 12h3M5 12h4M1 13h3M5 13h4M2 14h3M6 14h3M1 15h4M6 15h3M1 16h3M6 16h3M1 17h3M6 17h1M8 17h1M2 18h1M6 18h1M8 18h1M1 19h1M3 19h1M7 19h1M2 20h1M4 20h1M6 20h1M8 20h1M3 21h1M5 21h1M7 21h1M6 22h1M1 38h2M4 38h1M6 38h1M4 39h3M4 40h3M4 41h3M4 42h1M6 42h1M4 43h3M4 44h3M4 45h1M6 45h1M4 47h1M6 47h1M1 48h1M3 48h1M5 48h1M7 48h1M2 49h1M4 49h1M6 49h1M8 49h1M5 65h2M4 66h4M5 67h1M3 68h4M3 69h3M2 70h4M2 71h3M1 72h1M3 72h1M2 73h1M1 74h1M3 74h1M2 75h1M4 75h1M6 75h1M8 75h1M1 76h1M3 76h1M5 76h1M5 92h2M3 93h4M3 94h5M6 95h2M8 96h1M6 97h3M6 98h3M1 99h1M3 99h1M7 99h1M2 100h1M6 100h1M8 100h1M1 101h1M3 101h1M7 101h1M2 102h1M4 102h1M6 102h1M3 103h1M5 103h1M4 104h1M2 119h4M7 119h3M1 120h1M3 120h7M1 121h9M7 122h2M7 123h3M7 124h3M7 125h3M8 126h1M7 127h1M9 127h1M8 128h1M7 129h1M8 130h1M1 146h7M1 147h3M5 147h3M5 148h4M6 149h1M8 149h1M6 150h3M6 151h3M6 152h3M1 153h1M3 153h1M7 153h1M2 154h1M6 154h1M8 154h1M3 155h1M7 155h1M6 156h1M3 157h1M5 157h1M1 173h3M1 174h2M4 174h2M1 175h7M1 176h4M6 176h3M1 177h3M6 177h3M1 178h3M6 178h3M1 179h3M7 179h2M1 180h1M3 180h1M7 180h1M2 181h1M6 181h1M8 181h1M1 182h1M3 182h1M5 182h1M2 183h1M4 183h1M3 184h1M5 184h1M4 200h3M4 201h3M6 202h1M4 203h2M3 204h3M3 205h3M2 206h1M4 206h1M3 207h1M2 208h1M4 208h1M3 209h1M4 210h1M3 211h1M4 212h1M2 227h4M7 227h1M3 228h4M2 229h6M1 230h6M8 230h1M1 231h3M7 231h2M1 232h3M6 232h3M2 233h2M6 233h1M8 233h1M2 234h1M6 234h1M8 234h1M1 235h1M3 235h1M7 235h1M2 236h1M6 236h1M8 236h1M3 237h1M5 237h1M7 237h1M4 238h1M6 238h1M1 254h8M3 255h6M3 256h6M6 257h3M7 258h2M7 259h2M6 260h3M1 261h1M3 261h1M7 261h1M2 262h1M6 262h1M8 262h1M3 263h1M7 263h1M6 264h1M3 265h1M5 265h1" />
<path stroke="#c0dcc1" d="M1 14h1M7 17h1M5 42h1M7 65h1M6 67h1M1 119h1M2 120h1M7 149h1M7 182h1M2 210h1M7 230h1M1 233h1M7 233h1M4 236h1M2 255h1M6 259h1" />
<path stroke="#010000" d="M9 15h1M7 40h1M0 72h1M0 123h1M7 142h1M0 147h1M9 150h1M5 152h1M7 172h1M5 173h1M5 212h1M8 227h1M1 268h1" />
<path stroke="#c1dcc0" d="M4 22h1M5 38h1M4 67h1M7 76h1M5 101h1M9 129h1M5 155h1M3 174h1M6 174h1M5 176h1M6 183h1M4 202h1M6 231h1M6 258h1M5 263h1" />
<path stroke="#c0ddc0" d="M5 46h1M6 119h1M9 122h1M4 147h1M4 156h1M6 179h1M5 202h1M3 203h1M3 206h1M6 227h1M4 264h1" />
<path stroke="#feffff" d="M8 50h1M3 75h1M8 89h1M2 101h1M8 155h1M4 157h1M5 158h1M6 165h1M8 167h1M7 184h1M1 193h1M1 226h1M7 226h1M7 250h1M1 253h1" />
<path stroke="#fffffe" d="M8 63h1M3 85h1M3 115h1M7 128h1M5 156h1M4 158h1M7 167h1M6 196h1M3 220h1M1 224h1M2 225h1M3 238h1M2 246h1M6 247h1M2 261h1M3 262h1M1 263h1M6 265h1M4 266h1" />
<path stroke="#000001" d="M3 67h1M9 79h1M6 133h1M9 142h1M5 150h1M8 159h1M5 171h1M9 178h1M3 202h1" />
<path stroke="#020202" d="M0 89h1M0 90h1M0 91h4M2 92h1" />
<path stroke="#30455a" d="M4 90h1" />
<path stroke="#2b4056" d="M4 91h1" />
<path stroke="rgba(255,255,255,0.984313725490196)" d="M7 91h1" />
<path stroke="rgba(192,220,192,0.9882352941176471)" d="M3 92h2" />
<path stroke="rgba(192,220,192,0.9764705882352941)" d="M7 92h1" />
<path stroke="#010101" d="M7 93h1M5 97h1" />
<path stroke="#020302" d="M8 94h1" />
<path stroke="#2d4257" d="M3 95h1" />
<path stroke="rgba(192,220,192,0.9803921568627451)" d="M5 95h1" />
<path stroke="#090a09" d="M8 95h1" />
<path stroke="rgba(192,220,192,0.9725490196078431)" d="M5 96h1" />
<path stroke="rgba(192,220,192,0.9921568627450981)" d="M6 96h1" />
<path stroke="rgba(192,220,192,0.984313725490196)" d="M7 96h1" />
<path stroke="#060706" d="M9 96h1" />
</svg>