<svg xmlns="http://www.w3.org/2000/svg" viewBox="0 -0.5 55 20" shape-rendering="crispEdges">
<metadata>Made with Pixels to Svg https://codepen.io/shshaw/pen/XbxvNj</metadata>
<path stroke="#2a3f55" d="M10 0h1M12 0h1M20 0h3M0 1h1M2 1h4M10 1h1M13 1h1M20 1h1M23 1h1M42 1h4M10 2h1M20 2h1M23 2h1M41 2h1M46 2h2M9 3h1M14 3h1M19 3h1M24 3h1M48 3h1M0 4h1M4 4h1M8 4h1M15 4h1M18 4h1M25 4h1M42 4h2M45 4h1M48 4h1M3 5h3M8 5h1M12 5h1M21 5h1M36 5h3M42 5h7M0 6h1M3 6h1M8 6h1M11 6h4M18 6h1M21 6h5M36 6h1M45 6h2M0 7h1M3 7h1M7 7h2M12 7h4M18 7h1M22 7h1M24 7h2M43 7h1M46 7h3M0 8h1M6 8h1M8 8h2M14 8h1M18 8h1M23 8h1M25 8h1M37 8h1M40 8h4M0 9h1M7 9h3M14 9h1M18 9h3M24 9h1M4 10h1M9 10h3M15 10h1M19 10h2M25 10h1M43 10h1M10 11h3M21 11h2M37 11h2M41 11h3M37 12h2M42 12h1M37 13h3M9 14h1M14 14h1M19 14h1M24 14h1M39 14h2M47 14h1M7 15h1M9 15h2M13 15h2M23 15h2M39 15h4M44 15h4M1 16h2M6 16h2M9 16h2M13 16h2M19 16h1M23 16h1M41 16h4M46 16h2M1 17h2M10 17h3M20 17h4M42 17h4M11 18h2M21 18h1M12 19h1M21 19h1" />
<path stroke="#2a3f54" d="M11 0h1M6 2h1M39 3h1M38 4h1M44 4h1M11 5h1M47 6h2M13 8h1M10 9h1M43 12h1M46 14h1M1 15h2M24 16h1M7 17h1M11 19h1M22 19h1" />
<path stroke="#2a3e55" d="M1 1h1M0 2h1M40 2h1M7 3h1M15 5h1M22 5h1M4 6h1M23 7h1M7 8h1M15 8h1M19 8h1M24 8h1M36 9h1M7 10h1M20 11h1M6 15h1M20 15h1M43 15h1M40 16h1M13 17h1M22 18h1" />
<path stroke="#ffffff" d="M11 1h2M22 1h1M3 2h3M12 2h1M21 2h2M43 2h3M1 4h2M6 4h2M9 4h5M19 4h1M21 4h4M39 4h3M47 4h1M6 5h1M9 5h1M13 5h2M19 5h2M23 5h2M39 5h2M1 6h2M5 6h1M9 6h2M20 6h1M37 6h1M39 6h5M1 7h2M4 7h3M9 7h3M19 7h3M37 7h6M1 8h4M10 8h1M12 8h1M20 8h3M38 8h2M1 9h6M11 9h3M21 9h1M23 9h1M37 9h7M1 10h3M5 10h2M12 10h1M22 10h3M37 10h1M39 10h1M41 10h2M1 11h2M5 11h1M7 11h1M13 11h1M23 11h2M39 11h2M1 14h1M6 14h2M10 14h4M20 14h1M43 14h2M11 15h2M21 15h2M12 16h1M21 16h1" />
<path stroke="#fefeff" d="M21 1h1" />
<path stroke="#fffeff" d="M1 2h1M42 2h1M14 4h1M7 5h1M5 8h1M11 8h1M14 10h1M22 16h1" />
<path stroke="#fffffe" d="M2 2h1M5 4h1M10 5h1M7 6h1M19 6h1M38 6h1M40 10h1M6 11h1M2 14h1M21 14h1M23 14h1M42 14h1" />
<path stroke="#feffff" d="M11 2h1M20 4h1M46 4h1M1 5h2M6 6h1M22 9h1M13 10h1M38 10h1M22 14h1M45 14h1M11 16h1" />
<path stroke="#2b3f55" d="M13 2h1M0 3h1M3 4h1M0 5h1M18 5h1M25 5h1M41 5h1M15 6h1M36 7h1M36 8h1M21 10h1M12 12h1M22 12h1M41 14h1M19 15h1M20 16h1M45 16h1M6 17h1" />
<path stroke="#c0dcc0" d="M1 3h2M4 3h3M11 3h3M20 3h4M40 3h3M44 3h2M47 3h1M1 12h1M6 12h1M9 12h2M13 12h1M19 12h2M24 12h1M39 12h3M46 12h2M1 13h2M6 13h1M9 13h6M19 13h1M21 13h2M24 13h1M40 13h1M42 13h2M46 13h2" />
<path stroke="#c1dcc0" d="M3 3h1M2 12h1M7 13h1M23 13h1" />
<path stroke="#c0dcc1" d="M10 3h1M7 12h1M14 12h1" />
<path stroke="#c0ddc0" d="M43 3h1M46 3h1M20 13h1M41 13h1M44 13h2" />
<path stroke="#000000" d="M0 10h1M8 10h1M18 10h1M0 11h1M4 11h1M9 11h1M15 11h1M18 11h1M25 11h1M36 11h1M46 11h2M0 12h1M3 12h3M11 12h1M15 12h1M18 12h1M21 12h1M25 12h1M36 12h1M44 12h2M0 13h1M5 13h1M8 13h1M15 13h1M36 13h1M48 13h1M0 14h1M3 14h1M5 14h1M8 14h1M15 14h1M25 14h1M37 14h1M0 15h1M5 15h1M8 15h1M18 15h1M38 15h1M48 15h1M0 16h1M3 16h1M5 16h1M15 16h1M18 16h1M25 16h1M0 17h1M3 17h1M5 17h1M8 17h2M14 17h1M24 17h1M40 17h2M46 17h2M20 18h1M23 18h1M42 18h2M45 18h1M20 19h1" />
<path stroke="#000100" d="M36 10h1M3 11h1M8 11h1M48 12h1M18 13h1M25 13h1M36 14h1M38 14h1" />
<path stroke="#fefffe" d="M14 11h1" />
<path stroke="#010000" d="M19 11h1M18 14h1M3 15h1M25 15h1M39 16h1M48 17h1M10 18h1M13 18h1M10 19h1" />
<path stroke="#000001" d="M48 11h1M8 12h1M3 13h1M48 14h1M15 15h1M8 16h1M48 16h1M44 18h1" />
<path stroke="#c1ddc0" d="M23 12h1" />
<path stroke="#000101" d="M19 17h1" />
</svg>