<svg xmlns="http://www.w3.org/2000/svg" viewBox="0 -0.5 162 20" shape-rendering="crispEdges">
<metadata>Made with Pixels to Svg https://codepen.io/shshaw/pen/XbxvNj</metadata>
<path stroke="#000000" d="M0 0h6M7 0h23M31 0h34M66 0h24M91 0h4M96 0h13M110 0h16M127 0h9M137 0h3M141 0h19M161 0h1M0 1h2M3 1h3M7 1h18M26 1h31M59 1h21M81 1h15M97 1h3M101 1h1M103 1h1M105 1h1M107 1h6M114 1h5M120 1h6M127 1h8M137 1h4M142 1h3M146 1h1M148 1h8M157 1h3M161 1h1M0 2h1M23 2h1M46 2h1M69 2h1M92 2h1M115 2h1M138 2h1M161 2h1M0 3h1M23 3h1M46 3h1M69 3h1M92 3h1M115 3h1M138 3h1M161 3h1M0 4h1M23 4h1M46 4h1M69 4h1M92 4h1M115 4h1M138 4h1M161 4h1M23 5h1M46 5h1M69 5h1M92 5h1M106 5h2M115 5h1M138 5h1M161 5h1M0 6h1M7 6h3M15 6h2M23 6h1M29 6h1M31 6h2M36 6h1M38 6h2M46 6h1M53 6h2M69 6h1M76 6h2M83 6h3M92 6h1M108 6h1M115 6h1M138 6h1M148 6h1M161 6h1M0 7h1M7 7h1M14 7h1M23 7h1M29 7h1M36 7h1M46 7h1M53 7h1M55 7h2M69 7h1M83 7h1M92 7h1M98 7h3M106 7h2M109 7h1M115 7h1M131 7h1M138 7h1M147 7h1M161 7h1M0 8h1M7 8h1M13 8h1M23 8h1M29 8h1M46 8h1M53 8h1M57 8h2M69 8h1M76 8h1M79 8h1M83 8h1M92 8h1M101 8h1M105 8h1M115 8h1M127 8h2M132 8h1M138 8h1M161 8h1M0 9h1M7 9h1M12 9h1M23 9h1M36 9h1M46 9h1M53 9h1M59 9h2M69 9h1M80 9h1M83 9h1M92 9h1M104 9h1M115 9h1M127 9h1M129 9h1M131 9h1M138 9h1M143 9h3M161 9h1M0 10h1M7 10h1M29 10h1M36 10h1M46 10h1M61 10h2M69 10h1M76 10h1M83 10h1M92 10h1M103 10h1M115 10h1M128 10h1M138 10h1M143 10h1M161 10h1M0 11h1M7 11h1M23 11h1M29 11h1M36 11h1M46 11h1M53 11h1M69 11h1M76 11h1M83 11h1M92 11h1M106 11h2M115 11h1M138 11h1M161 11h1M0 12h1M7 12h1M23 12h1M29 12h1M36 12h1M46 12h1M53 12h1M69 12h1M76 12h1M83 12h1M92 12h1M106 12h1M108 12h1M115 12h1M138 12h1M161 12h1M0 13h1M7 13h1M23 13h1M36 13h1M46 13h1M53 13h1M69 13h1M76 13h1M83 13h1M92 13h1M99 13h1M107 13h1M109 13h1M115 13h1M124 13h7M138 13h1M161 13h1M0 14h1M7 14h1M29 14h1M46 14h1M53 14h1M69 14h1M76 14h1M83 14h1M92 14h1M115 14h1M138 14h1M161 14h1M0 15h1M23 15h1M46 15h1M69 15h1M92 15h1M115 15h1M161 15h1M23 16h1M46 16h1M69 16h1M92 16h1M115 16h1M0 17h1M23 17h1M46 17h1M69 17h1M92 17h1M115 17h1M138 17h1M161 17h1M23 18h1M69 18h1M92 18h1M115 18h1M138 18h1M161 18h1M0 19h4M5 19h2M8 19h30M39 19h3M44 19h16M61 19h45M107 19h55" />
<path stroke="#010000" d="M6 0h1M30 0h1M90 0h1M126 0h1M6 1h1M57 1h1M96 1h1M102 1h1M126 1h1M135 1h1M141 1h1M147 1h1M156 1h1M0 5h1M30 6h1M78 7h1M36 8h1M102 9h1M36 14h1M138 15h1M0 16h1M138 16h1M0 18h1M42 19h1M60 19h1" />
<path stroke="#000001" d="M65 0h1M95 0h1M140 0h1M2 1h1M80 1h1M104 1h1M113 1h1M119 1h1M131 6h1M146 8h1M29 9h1M23 10h1M53 10h1M29 13h1M98 13h1M23 14h1M161 16h1M38 19h1" />
<path stroke="#000100" d="M109 0h1M136 0h1M160 0h1M25 1h1M58 1h1M100 1h1M106 1h1M136 1h1M145 1h1M160 1h1M37 6h1M76 7h1M76 9h1M100 13h1M46 18h1M4 19h1M7 19h1M43 19h1M106 19h1" />
<path stroke="#9a9a9a" d="M1 2h16M18 2h4M24 2h21M47 2h21M70 2h15M86 2h5M93 2h21M116 2h1M119 2h14M134 2h3M139 2h10M150 2h3M155 2h5M1 3h1M24 3h1M44 3h1M47 3h1M67 3h1M70 3h1M90 3h1M93 3h1M113 3h1M116 3h1M136 3h1M139 3h1M159 3h1M1 4h1M3 4h3M7 4h14M24 4h1M26 4h18M47 4h1M49 4h18M70 4h1M72 4h7M80 4h10M93 4h1M95 4h7M103 4h10M116 4h1M118 4h4M123 4h10M135 4h1M139 4h1M141 4h7M149 4h10M1 5h1M3 5h10M14 5h6M24 5h1M27 5h10M38 5h6M47 5h1M49 5h18M70 5h1M72 5h3M76 5h14M93 5h1M95 5h4M100 5h6M108 5h5M116 5h1M118 5h3M132 5h4M139 5h1M141 5h5M147 5h6M154 5h5M1 6h1M3 6h4M11 6h4M17 6h4M24 6h1M26 6h3M33 6h3M40 6h4M47 6h1M49 6h2M52 6h1M55 6h12M72 6h4M78 6h5M86 6h4M93 6h1M95 6h5M102 6h4M109 6h4M116 6h1M118 6h3M132 6h4M139 6h1M141 6h7M150 6h2M154 6h5M1 7h1M3 7h4M10 7h4M17 7h2M20 7h1M24 7h1M26 7h1M28 7h1M33 7h3M40 7h4M47 7h1M49 7h4M57 7h10M70 7h1M72 7h4M79 7h4M86 7h3M93 7h1M95 7h2M101 7h5M111 7h2M116 7h1M118 7h3M132 7h4M139 7h1M141 7h5M148 7h1M151 7h1M155 7h3M1 8h1M3 8h4M10 8h3M17 8h4M24 8h1M26 8h3M33 8h3M40 8h4M47 8h1M49 8h4M59 8h8M72 8h4M80 8h2M86 8h4M93 8h1M95 8h3M102 8h3M111 8h2M116 8h1M118 8h3M124 8h3M134 8h2M139 8h1M142 8h4M147 8h1M150 8h1M153 8h1M156 8h3M1 9h1M3 9h4M10 9h2M17 9h4M26 9h3M33 9h2M40 9h4M47 9h1M49 9h4M61 9h1M63 9h2M66 9h1M70 9h1M72 9h3M81 9h2M87 9h3M93 9h1M95 9h3M103 9h1M110 9h3M116 9h1M118 9h3M124 9h3M135 9h1M139 9h1M141 9h2M146 9h1M150 9h1M154 9h1M157 9h2M1 10h1M3 10h4M10 10h1M17 10h4M24 10h1M27 10h2M33 10h3M40 10h4M47 10h1M49 10h4M63 10h2M66 10h1M70 10h1M72 10h4M86 10h3M93 10h1M95 10h6M109 10h4M118 10h3M124 10h4M133 10h3M141 10h2M145 10h1M150 10h1M152 10h2M155 10h1M157 10h2M1 11h1M3 11h3M10 11h1M17 11h4M24 11h1M26 11h3M34 11h2M40 11h4M47 11h1M50 11h3M63 11h4M70 11h1M72 11h4M82 11h1M86 11h4M95 11h3M99 11h3M105 11h1M110 11h3M116 11h1M118 11h3M124 11h2M127 11h2M132 11h4M139 11h1M142 11h1M150 11h1M152 11h1M157 11h2M4 12h3M10 12h2M17 12h1M19 12h2M24 12h1M26 12h3M33 12h3M40 12h4M47 12h1M49 12h4M61 12h6M70 12h1M72 12h4M81 12h2M86 12h1M88 12h2M93 12h1M95 12h6M109 12h4M116 12h1M118 12h3M124 12h6M131 12h5M139 12h1M141 12h1M150 12h1M154 12h1M156 12h3M1 13h1M3 13h4M10 13h3M17 13h4M24 13h1M26 13h3M34 13h2M40 13h4M47 13h1M49 13h4M59 13h8M70 13h1M72 13h4M80 13h3M86 13h4M93 13h1M95 13h3M103 13h1M110 13h3M116 13h1M118 13h3M132 13h3M139 13h1M141 13h5M151 13h1M153 13h1M156 13h1M158 13h1M1 14h1M3 14h4M10 14h4M15 14h1M17 14h4M24 14h1M26 14h3M33 14h3M40 14h4M47 14h1M49 14h4M57 14h4M62 14h5M70 14h1M72 14h4M79 14h4M86 14h4M93 14h1M95 14h3M102 14h3M111 14h2M116 14h1M118 14h1M120 14h1M132 14h4M139 14h1M141 14h4M146 14h1M150 14h2M155 14h4M1 15h1M3 15h4M10 15h5M17 15h4M26 15h3M35 15h1M40 15h4M47 15h1M49 15h4M55 15h3M59 15h8M70 15h1M72 15h4M79 15h4M86 15h4M93 15h1M95 15h2M101 15h1M103 15h3M110 15h3M116 15h1M118 15h1M120 15h1M132 15h4M141 15h7M150 15h2M154 15h5M1 16h1M3 16h9M13 16h8M24 16h1M26 16h12M39 16h5M47 16h1M49 16h1M51 16h16M70 16h1M73 16h17M93 16h1M95 16h5M101 16h5M109 16h4M116 16h1M118 16h18M139 16h1M141 16h2M144 16h1M146 16h3M150 16h9M1 17h1M3 17h18M26 17h5M32 17h12M47 17h1M49 17h13M63 17h4M70 17h1M72 17h14M87 17h3M93 17h1M95 17h11M108 17h5M116 17h1M118 17h5M124 17h5M130 17h6M139 17h1M141 17h12M154 17h2M157 17h2M1 18h2M24 18h2M47 18h2M70 18h2M93 18h2M116 18h2M139 18h2" />
<path stroke="#9a9a9b" d="M17 2h1M149 2h1M122 4h1M134 4h1M20 5h1M26 5h1M146 5h1M101 6h1M89 7h1M110 7h1M146 7h1M158 7h1M35 9h1M62 9h1M65 9h1M86 9h1M134 9h1M26 10h1M65 10h1M89 10h1M116 10h1M98 11h1M155 11h1M119 14h1M119 15h1M38 16h1M50 16h1M143 16h1M149 16h1M62 17h1M86 17h1" />
<path stroke="#737373" d="M22 2h1M45 2h1M68 2h1M137 2h1M160 2h1M21 4h1M44 4h1M67 4h1M90 4h1M113 4h1M136 4h1M159 4h1M21 5h1M67 5h1M90 5h1M113 5h1M136 5h1M159 5h1M21 6h1M44 6h1M67 6h1M90 6h1M107 6h1M113 6h1M122 6h9M136 6h1M8 7h1M15 7h1M21 7h1M31 7h1M37 7h2M44 7h1M54 7h1M67 7h1M77 7h1M84 7h1M90 7h1M108 7h1M113 7h1M122 7h1M130 7h1M136 7h1M159 7h1M8 8h1M14 8h2M21 8h1M30 8h2M37 8h2M44 8h1M54 8h3M67 8h1M77 8h2M84 8h1M90 8h1M99 8h2M106 8h4M113 8h1M122 8h1M130 8h1M136 8h1M148 8h1M159 8h1M8 9h1M13 9h3M21 9h1M30 9h2M37 9h2M44 9h1M54 9h5M67 9h1M78 9h2M84 9h1M90 9h1M101 9h1M105 9h1M108 9h1M113 9h1M122 9h1M128 9h1M130 9h1M132 9h1M136 9h1M147 9h2M159 9h1M8 10h1M12 10h3M21 10h1M30 10h1M37 10h2M44 10h1M54 10h7M67 10h1M77 10h4M84 10h1M90 10h1M104 10h1M107 10h1M113 10h1M122 10h1M129 10h3M136 10h1M146 10h3M159 10h1M8 11h1M12 11h4M21 11h1M30 11h2M37 11h2M44 11h1M54 11h7M67 11h1M77 11h4M84 11h1M90 11h1M113 11h1M122 11h1M130 11h1M136 11h1M147 11h2M154 11h1M8 12h1M13 12h3M21 12h1M30 12h2M37 12h2M44 12h1M54 12h4M67 12h1M77 12h3M84 12h1M90 12h1M102 12h1M104 12h1M107 12h1M113 12h1M122 12h1M147 12h2M159 12h1M8 13h1M14 13h2M21 13h1M30 13h2M37 13h2M44 13h1M54 13h3M67 13h1M77 13h2M84 13h1M90 13h1M101 13h1M105 13h1M108 13h1M113 13h1M122 13h1M136 13h1M148 13h1M159 13h1M8 14h1M21 14h1M30 14h2M37 14h2M44 14h1M54 14h1M67 14h1M77 14h1M84 14h1M90 14h1M99 14h2M107 14h1M109 14h1M113 14h1M122 14h9M136 14h1M159 14h1M21 15h1M44 15h1M67 15h1M90 15h1M108 15h1M113 15h1M136 15h1M159 15h1M21 16h1M44 16h1M67 16h1M90 16h1M107 16h1M113 16h1M136 16h1M21 17h1M44 17h1M67 17h1M90 17h1M113 17h1M136 17h1M159 17h1M3 18h13M17 18h5M26 18h19M49 18h9M59 18h9M72 18h1M74 18h3M80 18h8M89 18h2M95 18h1M97 18h5M103 18h5M109 18h5M118 18h6M125 18h4M130 18h5M136 18h1M141 18h8M150 18h8M159 18h1" />
<path stroke="#9a9b9a" d="M85 2h1M118 2h1M133 2h1M154 2h1M79 4h1M133 4h1M148 4h1M13 5h1M37 5h1M10 6h1M70 6h1M100 6h1M19 7h1M97 7h1M70 8h1M82 8h1M82 10h1M139 10h1M49 11h1M109 11h1M1 12h1M142 12h1M157 13h1M61 14h1M145 14h1M34 15h1M58 15h1M97 15h1M139 15h1M100 16h1M145 16h1M31 17h1" />
<path stroke="#737273" d="M91 2h1M31 10h1M58 12h1M136 12h1M106 14h1M16 18h1M58 18h1M73 18h1M79 18h1M88 18h1M124 18h1" />
<path stroke="#727373" d="M114 2h1M159 6h1M30 7h1M15 10h1M159 11h1M108 14h1M159 16h1M78 18h1M96 18h1M102 18h1M108 18h1M129 18h1M135 18h1" />
<path stroke="#9b9a9a" d="M117 2h1M153 2h1M21 3h1M6 4h1M102 4h1M75 5h1M99 5h1M153 5h1M51 6h1M27 7h1M150 7h1M141 8h1M24 9h1M75 9h1M144 10h1M6 11h1M33 11h1M93 11h1M108 11h1M126 11h1M141 11h1M3 12h1M18 12h1M87 12h1M33 13h1M135 13h1M150 13h1M24 15h1M33 15h1M78 15h1M102 15h1M12 16h1M72 16h1M24 17h1M123 17h1M129 17h1M153 17h1M156 17h1" />
<path stroke="#c1c1c1" d="M2 3h6M9 3h6M16 3h2M19 3h2M26 3h8M35 3h1M37 3h4M48 3h2M51 3h2M54 3h13M72 3h1M74 3h11M86 3h4M95 3h18M117 3h3M121 3h8M130 3h6M140 3h19M2 4h1M48 4h1M71 4h1M94 4h1M117 4h1M140 4h1M2 5h1M25 5h1M48 5h1M71 5h1M94 5h1M117 5h1M140 5h1M2 6h1M25 6h1M48 6h1M94 6h1M117 6h1M140 6h1M2 7h1M9 7h1M16 7h1M25 7h1M32 7h1M39 7h1M48 7h1M71 7h1M85 7h1M94 7h1M117 7h1M123 7h6M140 7h1M149 7h1M152 7h2M2 8h1M9 8h1M16 8h1M25 8h1M32 8h1M39 8h1M48 8h1M85 8h1M94 8h1M117 8h1M123 8h1M133 8h1M140 8h1M149 8h1M154 8h1M2 9h1M16 9h1M25 9h1M32 9h1M39 9h1M48 9h1M71 9h1M85 9h1M94 9h1M98 9h3M109 9h1M117 9h1M123 9h1M133 9h1M140 9h1M149 9h1M151 9h2M155 9h1M2 10h1M16 10h1M32 10h1M39 10h1M48 10h1M71 10h1M85 10h1M94 10h1M101 10h1M108 10h1M117 10h1M123 10h1M140 10h1M149 10h1M2 11h1M9 11h1M11 11h1M16 11h1M25 11h1M32 11h1M39 11h1M48 11h1M61 11h1M71 11h1M81 11h1M94 11h1M102 11h1M104 11h1M117 11h1M123 11h1M131 11h1M140 11h1M149 11h1M151 11h1M2 12h1M9 12h1M12 12h1M16 12h1M25 12h1M32 12h1M39 12h1M48 12h1M59 12h2M71 12h1M80 12h1M85 12h1M94 12h1M117 12h1M123 12h1M130 12h1M140 12h1M143 12h1M145 12h1M149 12h1M153 12h1M2 13h1M9 13h1M13 13h1M16 13h1M25 13h1M32 13h1M39 13h1M48 13h1M57 13h2M71 13h1M79 13h1M85 13h1M94 13h1M102 13h1M104 13h1M117 13h1M140 13h1M146 13h1M149 13h1M152 13h1M155 13h1M2 14h1M9 14h1M14 14h1M16 14h1M25 14h1M32 14h1M39 14h1M48 14h1M55 14h2M71 14h1M78 14h1M85 14h1M94 14h1M101 14h1M117 14h1M131 14h1M140 14h1M147 14h1M149 14h1M154 14h1M2 15h1M7 15h3M15 15h2M25 15h1M29 15h4M36 15h2M39 15h1M53 15h2M71 15h1M76 15h2M83 15h1M85 15h1M98 15h3M106 15h1M109 15h1M117 15h1M122 15h8M131 15h1M140 15h1M148 15h2M152 15h2M2 16h1M25 16h1M48 16h1M71 16h1M108 16h1M117 16h1M140 16h1M2 17h1M25 17h1M48 17h1M94 17h1M106 17h2M117 17h1M140 17h1" />
<path stroke="#c1c1c0" d="M8 3h1M41 3h1M50 3h1M53 3h1M71 3h1M71 6h1M71 8h1M62 11h1M38 15h1M71 17h1" />
<path stroke="#c0c1c1" d="M15 3h1M18 3h1M36 3h1M42 3h1M120 3h1M129 3h1M9 9h1M9 10h1M105 10h1M132 10h1M144 12h1M105 14h1M48 15h1M84 15h1" />
<path stroke="#4d4d4d" d="M22 3h1M45 3h1M68 3h1M91 3h1M114 3h1M160 3h1M22 4h1M45 4h1M68 4h1M91 4h1M114 4h1M137 4h1M160 4h1M22 5h1M45 5h1M68 5h1M91 5h1M114 5h1M137 5h1M22 6h1M45 6h1M68 6h1M91 6h1M114 6h1M137 6h1M22 7h1M45 7h1M68 7h1M91 7h1M114 7h1M137 7h1M160 7h1M22 8h1M45 8h1M68 8h1M91 8h1M114 8h1M129 8h1M137 8h1M160 8h1M22 9h1M45 9h1M68 9h1M91 9h1M114 9h1M137 9h1M156 9h1M160 9h1M22 10h1M45 10h1M68 10h1M91 10h1M102 10h1M114 10h1M154 10h1M156 10h1M160 10h1M22 11h1M68 11h1M91 11h1M103 11h1M114 11h1M129 11h1M137 11h1M144 11h2M156 11h1M160 11h1M22 12h1M45 12h1M68 12h1M114 12h1M137 12h1M146 12h1M160 12h1M22 13h1M45 13h1M68 13h1M91 13h1M114 13h1M123 13h1M131 13h1M137 13h1M147 13h1M160 13h1M22 14h1M45 14h1M68 14h1M91 14h1M114 14h1M137 14h1M148 14h1M160 14h1M22 15h1M45 15h1M68 15h1M91 15h1M121 15h1M137 15h1M160 15h1M22 16h1M45 16h1M91 16h1M114 16h1M137 16h1M160 16h1M22 17h1M45 17h1M68 17h1M91 17h1M137 17h1M22 18h1M45 18h1M68 18h1M91 18h1M114 18h1M137 18h1M160 18h1" />
<path stroke="#c1c0c1" d="M25 3h1M34 3h1M43 3h1M73 3h1M85 3h1M94 3h1M25 4h1M106 9h1M25 10h1M85 11h1M103 12h1M94 15h1M130 15h1M94 16h1" />
<path stroke="#4d4d4c" d="M137 3h1M137 10h1M68 16h1" />
<path stroke="#737372" d="M44 5h1M77 9h1M146 11h1M77 18h1M149 18h1M158 18h1" />
<path stroke="#262626" d="M121 5h2M124 5h2M127 5h5M121 6h1M149 6h1M152 6h1M121 7h1M129 7h1M154 7h1M110 8h1M121 8h1M131 8h1M151 8h2M155 8h1M107 9h1M121 9h1M153 9h1M11 10h1M81 10h1M106 10h1M121 10h1M121 11h1M143 11h1M153 11h1M105 12h1M121 12h1M151 12h2M155 12h1M106 13h1M121 13h1M154 13h1M98 14h1M110 14h1M121 14h1M152 14h2M107 15h1M106 16h1" />
<path stroke="#272626" d="M123 5h1M126 5h1M153 6h1" />
<path stroke="#4d4c4d" d="M160 5h1M160 6h1M151 10h1M91 12h1M160 17h1" />
<path stroke="#262726" d="M106 6h1" />
<path stroke="#262627" d="M98 8h1M101 12h1" />
<path stroke="#4c4d4d" d="M45 11h1M114 15h1M114 17h1" />
</svg>