<svg xmlns="http://www.w3.org/2000/svg" viewBox="0 -0.5 162 20" shape-rendering="crispEdges">
<metadata>Made with Pixels to Svg https://codepen.io/shshaw/pen/XbxvNj</metadata>
<path stroke="#cccdcc" d="M1 1h1M4 1h1M70 1h1M76 1h1M100 1h1M1 3h1M16 3h1M28 3h1M37 4h1M82 4h1M85 4h1M109 4h1M139 4h1M1 5h1M13 5h1M112 6h1M49 8h1M82 8h1M88 9h1M70 10h1M100 10h1M157 10h1M61 12h1M151 13h1M124 16h1M148 16h1" />
<path stroke="#cccccc" d="M2 1h2M5 1h4M10 1h11M24 1h6M31 1h7M39 1h6M48 1h20M71 1h5M77 1h6M85 1h6M93 1h7M101 1h9M112 1h2M116 1h21M139 1h7M148 1h12M1 2h1M21 2h1M24 2h1M44 2h1M47 2h1M67 2h1M70 2h1M90 2h1M93 2h1M113 2h1M116 2h1M136 2h1M139 2h1M159 2h1M3 3h9M13 3h3M17 3h4M24 3h1M26 3h2M29 3h15M47 3h1M49 3h17M70 3h1M72 3h8M81 3h9M93 3h1M95 3h18M116 3h1M118 3h14M133 3h1M135 3h1M139 3h1M141 3h5M147 3h12M1 4h1M3 4h18M26 4h11M38 4h1M40 4h4M47 4h1M49 4h18M70 4h1M72 4h10M83 4h2M87 4h3M93 4h1M95 4h11M108 4h1M110 4h3M116 4h1M118 4h3M132 4h4M141 4h9M151 4h8M3 5h4M10 5h1M12 5h1M14 5h1M17 5h4M24 5h1M26 5h3M33 5h3M40 5h1M42 5h2M47 5h1M49 5h2M52 5h1M55 5h10M66 5h1M70 5h1M72 5h4M78 5h5M86 5h4M93 5h1M95 5h11M109 5h2M112 5h1M116 5h1M118 5h2M132 5h4M139 5h1M142 5h6M150 5h2M154 5h5M1 6h1M3 6h4M10 6h4M17 6h4M24 6h1M26 6h3M33 6h3M40 6h2M43 6h1M47 6h1M49 6h4M58 6h2M61 6h6M70 6h1M72 6h4M79 6h4M86 6h4M93 6h1M95 6h1M97 6h1M101 6h5M110 6h2M116 6h1M118 6h2M132 6h4M139 6h1M141 6h6M148 6h1M150 6h2M155 6h1M157 6h2M1 7h1M3 7h4M10 7h3M17 7h4M24 7h1M26 7h3M33 7h3M40 7h2M43 7h1M49 7h4M59 7h6M66 7h1M70 7h1M72 7h4M80 7h3M86 7h4M93 7h1M95 7h3M102 7h3M111 7h2M116 7h1M118 7h3M124 7h3M134 7h2M139 7h1M141 7h5M147 7h1M150 7h1M153 7h1M156 7h3M1 8h1M3 8h4M10 8h2M17 8h1M19 8h2M24 8h1M26 8h3M33 8h3M40 8h4M50 8h3M61 8h2M64 8h3M70 8h1M72 8h4M81 8h1M86 8h4M93 8h1M95 8h3M103 8h1M110 8h3M116 8h1M118 8h3M124 8h3M134 8h2M139 8h1M141 8h2M146 8h1M150 8h1M154 8h1M157 8h2M1 9h1M3 9h3M10 9h1M17 9h4M24 9h1M27 9h2M33 9h3M40 9h4M47 9h1M49 9h4M63 9h2M66 9h1M70 9h1M72 9h4M82 9h1M86 9h2M89 9h1M93 9h1M95 9h6M109 9h4M116 9h1M118 9h3M124 9h4M133 9h3M139 9h1M141 9h2M144 9h2M150 9h1M152 9h2M155 9h1M157 9h2M1 10h1M3 10h4M10 10h1M17 10h4M24 10h1M26 10h3M33 10h3M40 10h4M47 10h1M49 10h4M63 10h4M72 10h4M82 10h1M86 10h4M93 10h1M95 10h5M101 10h1M105 10h1M108 10h5M118 10h3M124 10h5M132 10h4M139 10h1M141 10h2M150 10h1M152 10h1M155 10h1M158 10h1M1 11h1M3 11h4M10 11h2M17 11h4M24 11h1M26 11h3M33 11h2M40 11h4M47 11h1M49 11h4M61 11h6M70 11h1M72 11h4M81 11h2M87 11h2M93 11h1M95 11h6M109 11h4M116 11h1M118 11h3M124 11h6M131 11h5M139 11h1M141 11h2M150 11h1M154 11h1M156 11h2M1 12h1M3 12h4M10 12h3M17 12h4M24 12h1M26 12h3M33 12h3M40 12h4M47 12h1M49 12h4M59 12h2M62 12h5M70 12h1M72 12h4M81 12h2M86 12h4M93 12h1M95 12h3M103 12h1M110 12h3M116 12h1M118 12h3M132 12h4M139 12h1M141 12h5M150 12h2M153 12h1M156 12h3M1 13h1M3 13h4M10 13h4M15 13h1M17 13h4M24 13h1M26 13h3M33 13h3M40 13h4M47 13h1M49 13h4M57 13h5M63 13h4M70 13h1M72 13h4M79 13h2M82 13h1M87 13h3M93 13h1M95 13h3M102 13h3M111 13h2M116 13h1M118 13h3M132 13h3M139 13h1M141 13h5M155 13h4M1 14h1M3 14h2M6 14h1M10 14h5M17 14h4M24 14h1M26 14h3M33 14h3M40 14h4M47 14h1M49 14h4M55 14h12M70 14h1M72 14h4M78 14h3M82 14h1M86 14h4M93 14h1M95 14h3M102 14h4M110 14h3M116 14h1M118 14h3M132 14h4M139 14h1M141 14h7M150 14h2M154 14h5M1 15h1M3 15h12M16 15h5M24 15h1M26 15h3M30 15h2M33 15h2M36 15h8M47 15h1M49 15h1M51 15h14M66 15h1M70 15h1M72 15h6M79 15h11M93 15h1M95 15h3M100 15h6M109 15h4M116 15h1M118 15h16M135 15h1M139 15h1M141 15h17M1 16h1M3 16h18M24 16h1M26 16h13M40 16h4M47 16h1M49 16h1M51 16h5M57 16h8M66 16h1M70 16h1M72 16h2M75 16h15M93 16h1M95 16h11M108 16h5M116 16h1M118 16h6M125 16h3M129 16h7M139 16h1M141 16h3M145 16h3M149 16h6M156 16h3M1 17h2M25 17h1M47 17h2M70 17h2M93 17h2M116 17h2M139 17h2" />
<path stroke="#cdcccc" d="M9 1h1M21 1h1M30 1h1M84 1h1M111 1h1M147 1h1M12 3h1M66 3h1M132 3h1M24 4h1M39 4h1M150 4h1M51 5h1M111 5h1M120 5h1M141 5h1M42 6h1M57 6h1M60 6h1M96 6h1M120 6h1M156 6h1M42 7h1M18 8h1M63 8h1M6 9h1M81 13h1M135 13h1M150 13h1M81 14h1M15 15h1M78 15h1M99 15h1M39 16h1M144 16h1M24 17h1" />
<path stroke="#999999" d="M22 1h1M45 1h1M68 1h1M91 1h1M137 1h1M160 1h1M21 3h1M44 3h1M67 3h1M90 3h1M159 3h1M21 4h1M44 4h1M67 4h1M90 4h1M113 4h1M136 4h1M159 4h1M21 5h1M44 5h1M67 5h1M90 5h1M113 5h1M122 5h3M126 5h5M136 5h1M159 5h1M8 6h1M15 6h1M21 6h1M30 6h2M37 6h1M44 6h1M54 6h1M67 6h1M77 6h1M84 6h1M90 6h1M108 6h1M113 6h1M122 6h1M130 6h1M136 6h1M159 6h1M8 7h1M14 7h2M21 7h1M31 7h1M37 7h2M44 7h1M54 7h3M67 7h1M77 7h2M84 7h1M90 7h1M99 7h2M106 7h4M113 7h1M122 7h1M130 7h1M136 7h1M148 7h1M159 7h1M8 8h1M13 8h3M21 8h1M30 8h2M37 8h2M44 8h1M54 8h5M67 8h1M77 8h3M84 8h1M90 8h1M101 8h1M105 8h1M108 8h1M113 8h1M122 8h1M128 8h1M130 8h1M132 8h1M136 8h1M147 8h2M159 8h1M8 9h1M12 9h1M14 9h2M21 9h1M30 9h2M37 9h2M44 9h1M54 9h2M57 9h4M67 9h1M77 9h4M84 9h1M90 9h1M104 9h1M107 9h1M113 9h1M122 9h1M129 9h3M136 9h1M146 9h3M159 9h1M8 10h1M12 10h4M21 10h1M30 10h2M37 10h2M44 10h1M54 10h2M57 10h1M59 10h2M67 10h1M77 10h1M79 10h2M84 10h1M113 10h1M122 10h1M146 10h3M154 10h1M159 10h1M8 11h1M13 11h3M21 11h1M30 11h2M38 11h1M44 11h1M54 11h5M67 11h1M77 11h3M90 11h1M102 11h1M104 11h1M113 11h1M136 11h1M147 11h2M159 11h1M8 12h1M14 12h2M21 12h1M30 12h2M37 12h2M44 12h1M54 12h2M67 12h1M77 12h2M84 12h1M90 12h1M101 12h1M105 12h1M108 12h1M122 12h1M136 12h1M159 12h1M8 13h1M21 13h1M30 13h2M37 13h2M44 13h1M54 13h1M67 13h1M77 13h1M84 13h1M90 13h1M99 13h2M107 13h3M113 13h1M122 13h5M128 13h3M159 13h1M21 14h1M44 14h1M67 14h1M90 14h1M108 14h1M113 14h1M136 14h1M159 14h1M21 15h1M44 15h1M90 15h1M107 15h1M113 15h1M136 15h1M159 15h1M21 16h1M44 16h1M67 16h1M90 16h1M113 16h1M136 16h1M159 16h1M3 17h16M20 17h2M26 17h6M33 17h12M49 17h19M72 17h19M96 17h1M98 17h16M118 17h19M141 17h11M153 17h7M1 18h1M24 18h1M70 18h1M93 18h1M116 18h1M139 18h1" />
<path stroke="#cccccd" d="M38 1h1M47 1h1M83 1h1M110 1h1M146 1h1M80 3h1M134 3h1M146 3h1M86 4h1M11 5h1M41 5h1M65 5h1M47 7h1M65 7h1M47 8h1M26 9h1M65 9h1M116 10h1M35 11h1M86 11h1M89 11h1M158 11h1M80 12h1M62 13h1M86 13h1M146 13h1M5 14h1M101 14h1M29 15h1M32 15h1M35 15h1M50 15h1M65 15h1M98 15h1M134 15h1M158 15h1M50 16h1M56 16h1M65 16h1M74 16h1M128 16h1M155 16h1" />
<path stroke="#989999" d="M114 1h1M30 7h1M78 10h1M90 10h1M84 11h1" />
<path stroke="#ffffff" d="M2 2h16M19 2h2M26 2h6M33 2h9M48 2h15M64 2h3M71 2h6M78 2h9M88 2h2M94 2h3M98 2h15M117 2h11M129 2h7M140 2h19M2 3h1M25 3h1M48 3h1M71 3h1M94 3h1M117 3h1M140 3h1M2 4h1M25 4h1M48 4h1M71 4h1M94 4h1M117 4h1M140 4h1M2 5h1M25 5h1M48 5h1M71 5h1M94 5h1M117 5h1M140 5h1M2 6h1M9 6h1M16 6h1M25 6h1M32 6h1M39 6h1M48 6h1M71 6h1M85 6h1M94 6h1M123 6h6M140 6h1M149 6h1M152 6h2M9 7h1M16 7h1M25 7h1M32 7h1M39 7h1M48 7h1M71 7h1M85 7h1M94 7h1M117 7h1M133 7h1M149 7h1M154 7h1M2 8h1M9 8h1M16 8h1M39 8h1M48 8h1M71 8h1M85 8h1M94 8h1M98 8h3M106 8h1M109 8h1M117 8h1M123 8h1M133 8h1M140 8h1M149 8h1M151 8h2M155 8h1M2 9h1M16 9h1M25 9h1M32 9h1M39 9h1M48 9h1M71 9h1M85 9h1M94 9h1M101 9h1M105 9h1M108 9h1M117 9h1M123 9h1M132 9h1M140 9h1M149 9h1M2 10h1M9 10h1M11 10h1M16 10h1M32 10h1M39 10h1M48 10h1M61 10h2M71 10h1M81 10h1M85 10h1M94 10h1M102 10h1M117 10h1M123 10h1M140 10h1M149 10h1M151 10h1M2 11h1M9 11h1M12 11h1M25 11h1M32 11h1M39 11h1M48 11h1M59 11h2M71 11h1M80 11h1M85 11h1M94 11h1M117 11h1M123 11h1M130 11h1M140 11h1M143 11h3M149 11h1M153 11h1M2 12h1M9 12h1M16 12h1M25 12h1M32 12h1M39 12h1M48 12h1M58 12h1M71 12h1M85 12h1M94 12h1M102 12h1M104 12h1M117 12h1M140 12h1M146 12h1M149 12h1M152 12h1M155 12h1M2 13h1M9 13h1M14 13h1M16 13h1M25 13h1M39 13h1M48 13h1M55 13h2M71 13h1M78 13h1M85 13h1M94 13h1M101 13h1M105 13h1M117 13h1M131 13h1M140 13h1M149 13h1M154 13h1M2 14h1M7 14h3M15 14h2M25 14h1M29 14h4M36 14h4M48 14h1M53 14h2M71 14h1M76 14h1M83 14h1M85 14h1M94 14h1M98 14h3M106 14h1M109 14h1M117 14h1M122 14h8M131 14h1M140 14h1M148 14h2M152 14h2M2 15h1M25 15h1M48 15h1M71 15h1M94 15h1M108 15h1M117 15h1M140 15h1M2 16h1M25 16h1M48 16h1M71 16h1M94 16h1M106 16h2M117 16h1M140 16h1" />
<path stroke="#feffff" d="M18 2h1M42 2h1M63 2h1M87 2h1M117 6h1M123 7h1M9 9h1M57 12h1M147 13h1M84 14h1" />
<path stroke="#666666" d="M22 2h1M45 2h1M68 2h1M91 2h1M114 2h1M137 2h1M160 2h1M22 3h1M45 3h1M91 3h1M114 3h1M137 3h1M22 4h1M45 4h1M68 4h1M91 4h1M114 4h1M137 4h1M160 4h1M22 5h1M45 5h1M68 5h1M91 5h1M114 5h1M137 5h1M160 5h1M45 6h1M68 6h1M91 6h1M114 6h1M137 6h1M160 6h1M22 7h1M45 7h1M68 7h1M91 7h1M114 7h1M129 7h1M137 7h1M160 7h1M22 8h1M45 8h1M68 8h1M91 8h1M114 8h1M137 8h1M156 8h1M160 8h1M22 9h1M45 9h1M68 9h1M91 9h1M102 9h1M114 9h1M137 9h1M151 9h1M154 9h1M156 9h1M160 9h1M22 10h1M45 10h1M68 10h1M91 10h1M103 10h1M129 10h1M137 10h1M144 10h2M156 10h1M160 10h1M22 11h1M45 11h1M68 11h1M91 11h1M114 11h1M146 11h1M160 11h1M22 12h1M45 12h1M68 12h1M91 12h1M114 12h1M123 12h1M131 12h1M137 12h1M147 12h1M160 12h1M22 13h1M45 13h1M68 13h1M114 13h1M148 13h1M160 13h1M22 14h1M45 14h1M68 14h1M91 14h1M114 14h1M121 14h1M137 14h1M160 14h1M22 15h1M68 15h1M91 15h1M114 15h1M137 15h1M22 16h1M45 16h1M68 16h1M91 16h1M114 16h1M137 16h1M160 16h1M45 17h1M68 17h1M91 17h1M137 17h1M160 17h1M2 18h21M25 18h2M29 18h5M35 18h11M48 18h16M65 18h4M71 18h1M73 18h19M94 18h10M105 18h10M117 18h4M122 18h6M130 18h1M132 18h6M140 18h21" />
<path stroke="#fffeff" d="M25 2h1M43 2h1M97 2h1M25 8h1M25 10h1M16 11h1M103 11h1M13 12h1M79 12h1M130 14h1" />
<path stroke="#fffffe" d="M32 2h1M77 2h1M128 2h1M2 7h1M140 7h1M32 8h1M104 10h1M131 10h1M32 13h1M77 14h1" />
<path stroke="#666667" d="M68 3h1M137 11h1M137 13h1M104 18h1M128 18h1M131 18h1" />
<path stroke="#999998" d="M113 3h1M107 5h1M125 5h1M38 6h1M56 9h1M56 10h1M107 11h1M122 11h1M56 12h1M113 12h1M32 17h1M95 17h1M152 17h1M47 18h1" />
<path stroke="#999899" d="M136 3h1M13 9h1M58 10h1M130 10h1M136 10h1M37 11h1M148 12h1M106 13h1M127 13h1M136 13h1M67 15h1M19 17h1M97 17h1" />
<path stroke="#666766" d="M160 3h1M22 6h1M91 13h1M160 15h1M22 17h1M28 18h1M34 18h1M64 18h1M121 18h1" />
<path stroke="#000000" d="M106 4h2M7 5h3M15 5h2M29 5h4M36 5h4M53 5h2M76 5h2M83 5h3M108 5h1M131 5h1M148 5h1M7 6h1M14 6h1M29 6h1M36 6h1M53 6h1M55 6h2M76 6h1M83 6h1M98 6h3M106 6h2M109 6h1M131 6h1M147 6h1M7 7h1M13 7h1M29 7h1M36 7h1M53 7h1M57 7h2M76 7h1M79 7h1M83 7h1M101 7h1M105 7h1M127 7h2M146 7h1M7 8h1M12 8h1M29 8h1M36 8h1M53 8h1M59 8h2M76 8h1M80 8h1M83 8h1M102 8h1M104 8h1M127 8h1M129 8h1M131 8h1M143 8h3M7 9h1M29 9h1M36 9h1M53 9h1M61 9h2M76 9h1M83 9h1M128 9h1M143 9h1M7 10h1M29 10h1M36 10h1M53 10h1M76 10h1M106 10h2M7 11h1M29 11h1M36 11h1M53 11h1M76 11h1M83 11h1M106 11h1M108 11h1M29 12h1M36 12h1M53 12h1M76 12h1M83 12h1M98 12h3M107 12h1M109 12h1M124 12h7M7 13h1M29 13h1M36 13h1M53 13h1M76 13h1M83 13h1" />
<path stroke="#333333" d="M121 4h1M123 4h9M106 5h1M152 5h2M121 6h1M129 6h1M154 6h1M98 7h1M110 7h1M121 7h1M131 7h1M151 7h2M155 7h1M107 8h1M153 8h1M11 9h1M81 9h1M106 9h1M121 9h1M121 10h1M143 10h1M153 10h1M101 11h1M105 11h1M121 11h1M151 11h2M155 11h1M106 12h1M121 12h1M154 12h1M98 13h1M110 13h1M121 13h1M152 13h2M107 14h1M106 15h1" />
<path stroke="#333332" d="M122 4h1M149 5h1" />
<path stroke="#333233" d="M121 5h1M121 8h1" />
<path stroke="#010000" d="M78 6h1M132 7h1" />
<path stroke="#000100" d="M103 9h1M7 12h1" />
<path stroke="#000001" d="M83 10h1" />
<path stroke="#676666" d="M114 10h1M45 15h1M114 17h1M27 18h1M72 18h1M129 18h1" />
</svg>